<?xml version="1.0" encoding="UTF-8" standalone="no"?>
<!-- Created with Inkscape (http://www.inkscape.org/) -->

<svg
   xmlns:dc="http://purl.org/dc/elements/1.1/"
   xmlns:cc="http://creativecommons.org/ns#"
   xmlns:rdf="http://www.w3.org/1999/02/22-rdf-syntax-ns#"
   xmlns:svg="http://www.w3.org/2000/svg"
   xmlns="http://www.w3.org/2000/svg"
   xmlns:sodipodi="http://sodipodi.sourceforge.net/DTD/sodipodi-0.dtd"
   xmlns:inkscape="http://www.inkscape.org/namespaces/inkscape"
   width="339.31216mm"
   height="248.35733mm"
   viewBox="0 0 339.31217 248.35734"
   version="1.1"
   id="svg8"
   inkscape:version="0.92.1 r15371"
   sodipodi:docname="Malayalam-Letters-Colash3.svg"
   inkscape:export-filename="/home/nav/Desktop/malayalamltrcolash3.svg.png"
   inkscape:export-xdpi="300"
   inkscape:export-ydpi="300">
  <defs
     id="defs2">
    <inkscape:path-effect
       effect="spiro"
       id="path-effect112"
       is_visible="true" />
  </defs>
  <sodipodi:namedview
     id="base"
     pagecolor="#ffffff"
     bordercolor="#666666"
     borderopacity="1.0"
     inkscape:pageopacity="0.0"
     inkscape:pageshadow="2"
     inkscape:zoom="0.49497475"
     inkscape:cx="613.54081"
     inkscape:cy="401.02033"
     inkscape:document-units="mm"
     inkscape:current-layer="flowRoot10"
     showgrid="false"
     inkscape:window-width="1366"
     inkscape:window-height="679"
     inkscape:window-x="0"
     inkscape:window-y="28"
     inkscape:window-maximized="1"
     fit-margin-top="0"
     fit-margin-left="0"
     fit-margin-right="0"
     fit-margin-bottom="0"
     showguides="true"
     inkscape:guide-bbox="true">
    <sodipodi:guide
       position="146.46779,-0.0028751134"
       orientation="0,1"
       id="guide198"
       inkscape:locked="false" />
  </sodipodi:namedview>
  <metadata
     id="metadata5">
    <rdf:RDF>
      <cc:Work
         rdf:about="">
        <dc:format>image/svg+xml</dc:format>
        <dc:type
           rdf:resource="http://purl.org/dc/dcmitype/StillImage" />
        <dc:title></dc:title>
      </cc:Work>
    </rdf:RDF>
  </metadata>
  <g
     inkscape:label="Layer 1"
     inkscape:groupmode="layer"
     id="layer1"
     transform="translate(-145.75329,-92.817544)">
    <g
       aria-label="അ  ആ  ഇ  ഈ  ഉ  ഊ  ഋ  ഌ    എ  ഏ ഐ   ഒ  ഓ  ഔ  ക  ഖ  ഗ  ഘ   ങ  ച   ഛ  ജ  ഝ  ഞ  ട ഠ  ഡ  ഢ  ണ  ത  ഥ  ദ  ധ   ന  ഩ  പ   ഫ  ബ  ഭ  മ  യ ര  റ  ല  ള  ഴ  വ  ശ  ഷ   സ  ഹ ൺ  ൻ  ർ  ൽ  ൾ"
       transform="matrix(0.47266637,0,0,0.47266637,-319.9577,77.310665)"
       style="font-style:normal;font-variant:normal;font-weight:normal;font-stretch:normal;font-size:37.5px;line-height:0%;font-family:Rachana;-inkscape-font-specification:Rachana;letter-spacing:6.38000059px;word-spacing:0px;fill:#000000;fill-opacity:1;stroke:none;stroke-width:1px;stroke-linecap:butt;stroke-linejoin:miter;stroke-opacity:1"
       id="flowRoot10">
      <path
         style="opacity:1;fill:#000000;fill-opacity:1;stroke:none;stroke-width:1.41909635;stroke-linejoin:miter;stroke-miterlimit:4;stroke-dasharray:none;stroke-opacity:1"
         d="M 985.28479,32.80724 H 1703.153 V 558.2462 H 985.28479 Z"
         id="rect200" />
      <path
         d="m 1478.9414,85.621056 q 0.063,6.48676 -1.6646,12.725974 -1.727,6.23924 -6.4467,11.05105 -4.7198,4.81178 -12.0008,4.8821 -7.281,0.0703 -12.2431,-6.50151 -4.9621,-6.57186 -5.0484,-15.507614 -0.086,-8.93584 5.8057,-15.74489 6.0244,-6.81033 15.6743,-8.35986 -5.12,-9.21819 -15.8431,-9.11467 -5.4277,0.0524 -10.3639,3.01282 -4.9362,2.96034 -4.8876,7.99087 l 0.4168,43.156704 -11.3849,0.10992 -0.3567,-36.934694 q -0.066,-6.88385 -5.6096,-11.92759 -5.5431,-5.04367 -12.5593,-4.97589 l -4.2363,0.0409 q 8.9131,4.41537 8.9943,12.82169 0.081,8.40626 -7.9494,13.11767 10.3552,2.94503 10.4447,12.211819 0.068,7.016285 -5.2452,12.098565 -5.3129,5.0823 -12.3291,5.15009 -10.0611,0.0971 -15.766,-7.99006 -5.7049,-8.08716 -5.8047,-18.413064 -0.166,-17.20963 12.4453,-27.39359 -3.0511,-0.63244 -7.2872,-0.59143 -11.1202,0.10732 -17.1292,8.50624 -6.0091,8.39891 -5.8991,19.78383 0.078,8.075339 3.186,14.598764 3.1081,6.52356 8.9623,9.51213 l -4.4792,2.29398 q -6.6525,-3.37811 -10.3022,-11.15413 -3.6497,-7.77597 -3.7405,-17.175174 -0.1304,-13.50302 7.2521,-23.63632 7.3824,-10.13328 21.1503,-10.26614 9.6639,-0.0933 15.2545,3.03002 6.8532,-3.24365 16.782,-3.33946 15.8859,-0.1534 22.3477,10.90535 6.6441,-11.18532 19.419,-11.3087 12.7749,-0.12335 21.5438,9.92019 8.7689,10.04352 8.898,23.41413 z m -32.2567,4.94532 q 0.048,5.030534 3.1439,10.230284 3.0953,5.19969 8.1922,5.15051 5.0966,-0.0493 7.8198,-5.967125 2.7231,-5.917837 2.6502,-13.463639 -0.073,-7.54581 -3.4463,-14.13301 -8.0664,1.00466 -13.2502,5.75473 -5.1838,4.75007 -5.1096,12.42825 z m -48.2493,7.747634 q -0.088,-9.134354 -14.5179,-8.995014 l -0.2646,0.002 -0.045,-4.63338 3.3096,-0.0319 q 4.1038,-0.0396 7.384,-3.11639 3.2801,-3.07676 3.2437,-6.84965 -0.036,-3.77288 -3.0483,-7.18608 -3.0118,-3.41319 -6.7314,-4.70126 -6.3237,3.23851 -9.6291,10.55217 -3.3055,7.31366 -3.2338,14.72712 0.072,7.413432 3.7041,13.402294 3.6325,5.98889 10.2516,5.92497 3.8391,-0.0371 6.7266,-2.64665 2.8875,-2.60961 2.8504,-6.44869 z"
         style="line-height:1em;fill:#666699;stroke-width:3.61509204px"
         id="path61"
         inkscape:connector-curvature="0" />
      <path
         d="m 1509.4809,228.16163 q 0,10.35227 -6.481,16.74633 -6.4813,6.39403 -15.6159,6.39403 -6.1765,0 -10.7002,-2.34882 l 1.4787,-4.00172 q 2.958,1.47891 6.6116,1.47891 7.8294,0 13.7019,-6.74203 5.8722,-6.74203 5.8722,-15.09344 0,-4.61068 -2.4358,-8.78638 -2.4361,-4.17574 -6.5249,-5.48063 1.8271,4.69768 1.8271,8.91688 0,4.2192 -1.218,8.30791 -1.131,4.08873 -4.263,7.22051 -3.1316,3.13176 -7.9164,3.13176 -4.7845,0 -8.0033,-4.34968 -3.2189,-4.34969 -3.2189,-10.22179 0,-5.87208 4.0018,-10.35228 4.0016,-4.4802 10.2653,-5.35014 -3.306,-6.08955 -10.3525,-6.08955 -3.5665,0 -6.8288,1.87036 -3.2623,1.87036 -3.2623,5.26314 v 28.36 h -7.4815 v -24.27129 q 0,-4.52369 -3.6099,-7.87295 -3.6103,-3.34926 -8.2209,-3.34926 h -2.7839 q 5.8286,2.95778 5.8286,8.48189 0,5.52412 -5.3064,8.56891 6.7854,2.00088 6.7854,8.09044 0,4.52369 -3.4797,7.91644 -3.5668,3.30577 -8.1775,3.30577 -6.698,0 -10.3519,-5.30661 -3.6539,-5.30664 -3.6539,-12.17916 0,-11.4832 8.3516,-17.92074 -2.0879,-0.43498 -4.7846,-0.43498 -7.3079,0 -11.3096,5.5676 -4.0018,5.56761 -4.0018,12.87513 0,5.21962 2.0009,9.56933 2.0009,4.34968 5.8285,6.35055 l -2.9578,1.47888 q -4.3494,-2.34881 -6.6983,-7.48147 -2.3489,-5.13263 -2.3489,-11.00473 0,-5.87209 1.9574,-10.78724 1.9574,-4.91517 6.3503,-8.22094 4.3933,-3.30576 10.7006,-3.30576 6.3073,0 9.8737,2.08786 4.6976,-2.08786 11.0481,-2.08786 10.526,0 14.6147,7.30748 4.4365,-7.30748 12.614,-7.30748 10.8741,0 16.5288,10.17829 7.3948,1.4789 11.5707,7.30749 4.1757,5.82859 4.1757,13.57104 z m -21.3139,-17.74676 q -5.2197,0.52197 -8.6994,3.69726 -3.4799,3.17528 -3.4799,8.13392 0,3.39276 2.0009,6.78552 2.0009,3.39277 5.3502,3.39277 3.3492,0 5.1762,-3.87123 1.8268,-3.87123 1.8268,-8.91689 0,-5.04564 -2.1748,-9.22135 z m -43.9316,16.61586 q 0,-6.00259 -9.482,-6.00259 h -0.1734 v -3.04479 h 2.1747 q 2.6966,0 4.8714,-2.00085 2.175,-2.00088 2.175,-4.43671 0,-2.43583 -1.9574,-4.69768 -1.9575,-2.26182 -4.3931,-3.21877 -4.1754,2.17485 -6.3937,6.91602 -2.2187,4.74118 -2.2187,9.61283 0,4.87166 2.3491,8.82988 2.3489,3.95822 6.6983,3.95822 2.5226,0 4.4365,-1.73987 1.914,-1.73987 1.914,-4.1757 z"
         style="line-height:1em;fill:#ff794b;stroke-width:2.37551332px"
         id="path63"
         inkscape:connector-curvature="0" />
      <path
         d="m 1282.5724,342.05521 -40.876,0.12576 q -3.7041,0.0115 -5.6612,-1.90067 -1.9571,-1.91217 -1.9653,-4.55789 -0.01,-2.64571 2.0031,-4.66933 2.0111,-2.02358 5.5828,-2.03447 l 25.1342,-0.0774 q 4.9607,-0.0153 7.5956,-3.52897 2.5688,-3.51358 2.5533,-8.54035 -0.015,-5.02702 -2.6066,-8.8223 -2.5913,-3.79523 -6.8905,-3.782 -2.5796,0.008 -4.2618,1.43518 -1.6825,1.4275 -1.6749,3.87471 l 0.052,16.93252 -5.6884,0.0177 -0.048,-15.54374 q -0.01,-2.84416 -2.4944,-4.55622 -2.4856,-1.71204 -6.0904,-1.70092 -3.6048,0.0111 -6.6077,2.13697 -3.0031,2.12587 -3.8502,6.29556 l 0.3312,0.13121 q 2.3697,-3.7776 6.0405,-3.78891 3.671,-0.0113 5.7623,2.52876 2.0913,2.54012 2.1021,6.01256 0.011,3.47261 -2.296,6.1915 -2.3066,2.71885 -6.0768,2.73048 -3.7701,0.0117 -6.2936,-3.22157 -2.4572,-3.2335 -2.4713,-7.79724 -0.021,-6.87883 4.7947,-10.99455 4.8158,-4.11583 10.967,-4.13474 3.4394,-0.0106 6.2548,1.36976 2.8154,1.38028 4.3448,4.02138 2.7617,-5.30013 8.8468,-5.31889 6.0852,-0.0188 9.6715,4.73254 3.5205,4.81769 3.5394,10.96893 0.019,6.1514 -2.8784,10.39348 -2.8973,4.24224 -8.0563,4.25807 l -29.698,0.0913 q -1.8521,0.006 -2.9075,0.93501 -1.0554,0.9293 -1.0519,2.08675 0,1.15754 1.0314,2.01422 1.0279,0.85669 2.9461,0.85076 l 40.876,-0.12574 z m -37.1018,-20.02637 q 1.0529,-1.68997 1.0459,-4.00493 -0.01,-2.31508 -1.1036,-3.99836 -1.0966,-1.68327 -3.0478,-1.67722 -1.9512,0.006 -2.9713,1.66278 -1.0202,1.65674 -1.0131,3.93866 0.01,2.28184 1.1368,4.03112 1.1298,1.74936 3.0151,1.74317 1.8851,-0.006 2.9382,-1.69555 z"
         style="line-height:1em;fill:#cc9900;stroke-width:1.8061446px"
         id="path65"
         inkscape:connector-curvature="0"
         inkscape:transform-center-x="-5.0209667"
         inkscape:transform-center-y="-247.24851" />
      <path
         d="m 1265.0227,460.195 0.1322,-2.44729 q 0,-5.68829 3.241,-9.19387 3.3072,-3.43944 7.7388,-3.43944 5.4237,0 8.5324,4.96073 3.5056,-5.09301 8.5986,-5.09301 5.093,0 8.797,4.49772 3.704,4.49772 3.704,11.11201 0,6.6143 -4.0347,11.1451 -4.0347,4.53079 -12.038,4.53079 -5.1592,0 -9.0616,-2.18272 -3.9024,-2.18271 -3.9024,-5.48986 v -0.85986 h 2.2488 v 0.79371 q 0,1.91815 2.8442,3.50558 2.9103,1.52129 6.5481,1.52129 5.7545,0 8.797,-3.83629 3.0426,-3.83629 3.0426,-9.42538 0,-5.58908 -2.7118,-8.69779 -2.7119,-3.10872 -6.1513,-3.10872 -2.2489,0 -3.7702,1.32286 -1.5213,1.32286 -1.5213,3.57171 v 9.45845 h -5.6883 v -7.0773 q 0,-3.704 -1.5213,-5.62215 -1.5874,-1.91815 -4.2331,-1.91815 -2.6457,0 -4.9607,2.74494 -2.3151,2.74492 -2.3151,7.30879 l -0.1322,2.11658 q 0,0.463 0.2646,2.18271 h -2.1166 q -0.3307,-1.52128 -0.3307,-2.38114 z m -4.8945,26.12648 h -40.8766 q -3.7039,0 -5.655,-1.91815 -1.9513,-1.91815 -1.9513,-4.56387 0,-2.64571 2.0174,-4.66308 2.0172,-2.01736 5.5889,-2.01736 h 25.1344 q 4.9607,0 7.6063,-3.50558 2.5797,-3.50557 2.5797,-8.53244 0,-5.02687 -2.5797,-8.83009 -2.5794,-3.80321 -6.8787,-3.80321 -2.5796,0 -4.2662,1.42207 -1.6867,1.42208 -1.6867,3.86936 v 16.9326 h -5.6883 v -15.5436 q 0,-2.84415 -2.4803,-4.56386 -2.4803,-1.71972 -6.0852,-1.71972 -3.605,0 -6.6143,2.11658 -3.0094,2.11657 -3.8692,6.28357 l 0.3307,0.13229 q 2.3812,-3.77015 6.0517,-3.77015 3.6712,0 5.7547,2.5465 2.0836,2.54651 2.0836,6.01901 0,3.47251 -2.3151,6.18437 -2.315,2.71187 -6.0854,2.71187 -3.7698,0 -6.2833,-3.24101 -2.4473,-3.24101 -2.4473,-7.80487 0,-6.87887 4.8285,-10.97973 4.8281,-4.10087 10.9797,-4.10087 3.4395,0 6.2504,1.38901 2.8111,1.389 4.3324,4.03472 2.778,-5.29144 8.863,-5.29144 6.0852,0 9.657,4.7623 3.5058,4.82842 3.5058,10.97972 0,6.1513 -2.9105,10.38445 -2.9103,4.23315 -8.0694,4.23315 h -29.6983 q -1.8518,0 -2.9101,0.926 -1.0583,0.92601 -1.0583,2.08351 0,1.1575 1.0252,2.01736 1.0252,0.85986 2.9432,0.85986 h 40.8766 z m -37.0402,-20.14054 q 1.0583,-1.68665 1.0583,-4.00165 0,-2.31501 -1.0914,-4.00165 -1.0916,-1.68665 -3.0428,-1.68665 -1.9509,0 -2.976,1.65358 -1.0254,1.65357 -1.0254,3.9355 0,2.28193 1.1246,4.03472 1.1242,1.75279 3.0091,1.75279 1.8851,0 2.9436,-1.68664 z"
         style="line-height:1em;fill:#996600;stroke-width:1.8061446px"
         id="path67"
         inkscape:connector-curvature="0" />
      <path
         d="m 1074.073,431.78936 q 4.0459,-3.54026 9.4761,-3.54038 5.4303,-2e-4 9.5295,3.59329 4.0994,3.59338 4.0995,8.89049 2e-4,5.29711 -4.0722,8.67764 -4.0726,3.38064 -9.3431,3.38067 l -7.0806,3.6e-4 q -1.331,-10e-6 -2.369,0.61223 -1.0381,0.61225 -1.038,1.83659 10e-5,1.22443 1.0382,1.7568 1.038,0.53238 2.3691,0.53231 l 20.4962,-3.8e-4 10e-5,3.99273 -20.4962,4.6e-4 q -2.6088,1.1e-4 -4.4721,-1.33081 -1.8098,-1.33117 -1.8101,-3.72656 0,-2.39578 1.2243,-3.7266 1.2776,-1.33091 3.1143,-1.59712 4.3921,-0.63903 7.6397,-0.31969 4.1524,-8e-5 7.2933,-2.76847 3.1409,-2.76831 3.1407,-6.89415 0,-4.12592 -2.9548,-7.16037 -2.9548,-3.03446 -7.054,-3.03432 -7.4533,1.4e-4 -10.2212,6.22874 l 0.2683,0.2102 q 1.9697,-3.08775 4.9242,-3.08771 2.9546,10e-6 4.6051,2.07623 1.6503,2.07624 1.6506,5.00407 10e-5,2.92799 -1.8366,4.95113 -1.8366,2.02299 -4.9511,2.02316 -3.1143,1.4e-4 -5.1906,-2.23586 -2.0231,-2.23594 -2.0232,-5.48338 0,-5.32384 4.0458,-8.86406 z m 5.5105,12.59043 q 0.8252,-1.38424 0.8252,-3.14112 -2e-4,-1.75671 -0.852,-3.1675 -0.8518,-1.41079 -2.5555,-1.41069 -1.7035,4e-5 -2.6617,1.35749 -0.9584,1.35768 -0.9583,3.19437 0,1.83668 0.985,3.19421 0.9849,1.35746 2.6886,1.35735 1.7035,5e-5 2.5287,-1.38411 z"
         style="line-height:1em;fill:#9999ff;stroke-width:1.45373261px"
         id="path69"
         inkscape:connector-curvature="0" />
      <path
         d="m 1207.7917,478.44271 q 0.033,3.30053 -1.1911,6.05454 -1.2237,2.75401 -4.2397,4.64733 -3.0158,1.89333 -7.3279,1.9361 -4.3116,0.0429 -7.4696,-1.62951 -3.1052,-1.72617 -3.1321,-4.44111 l -0.01,-0.69207 1.8102,-0.0179 0.01,0.63883 q 0.015,1.54381 2.3167,2.7721 2.3018,1.22838 5.2825,1.19868 4.6315,-0.0459 7.0497,-3.15784 2.4182,-3.1119 2.3736,-7.61023 -0.045,-4.49832 -2.2522,-6.97872 -2.2074,-2.48041 -4.9752,-2.45283 -1.8101,0.0179 -2.9975,1.0945 -1.1872,1.07657 -1.1692,2.88655 l 0.076,7.61263 -4.6316,0.0459 -0.057,-5.69615 q -0.03,-2.98118 -1.296,-4.51254 -1.2664,-1.53142 -3.3957,-1.51028 -2.1294,0.0212 -3.9973,2.24915 -1.8677,2.22803 -1.8315,5.90117 l 0.01,0.90497 q -0.047,0.58612 -0.042,1.11847 0.01,0.53234 0.2272,1.43522 l -1.7035,0.0169 q -0.2761,-1.00881 -0.2817,-1.59434 -0.01,-0.58561 0.041,-1.22494 l -0.011,-1.06472 q -0.045,-4.57818 2.6152,-7.39965 2.6605,-2.82155 6.1739,-2.85642 4.3652,-0.0433 6.9071,3.92452 2.8872,-4.12811 6.9066,-4.16794 4.0188,-0.04 7.0892,3.54987 3.0703,3.58987 3.1242,9.0198 z m -36.5275,20.96628 -20.4954,0.20335 q -3.1941,0.0317 -4.7527,-1.4436 -1.5586,-1.47523 -1.5803,-3.65786 -0.022,-2.18262 1.586,-3.82237 1.6075,-1.63978 4.6418,-1.6699 l 7.879,-0.0781 q 3.7796,-0.0375 5.9872,-2.90777 2.2076,-2.87022 2.1671,-6.94269 -0.04,-4.07245 -2.8655,-7.10572 -2.8253,-3.0333 -8.0423,-2.98152 -3.5135,0.0349 -6.132,1.73789 -2.6184,1.70306 -3.2287,4.58406 l 0.2683,0.21029 q 1.8858,-3.10662 4.8403,-3.13594 2.9545,-0.0293 4.652,2.03019 1.6975,2.05953 1.7253,4.85435 0.028,2.79483 -1.8139,4.99594 -1.8415,2.20113 -4.9292,2.23174 -3.0876,0.0307 -5.0297,-2.53223 -1.942,-2.56286 -1.9773,-6.12959 -0.054,-5.42995 3.6959,-8.47519 3.7499,-3.04527 9.2329,-3.09969 6.8673,-0.0681 10.3385,3.67751 3.4712,3.74558 3.5208,8.74962 0.05,5.00411 -2.4183,8.51562 -2.4675,3.51169 -6.4068,3.55077 l -11.4456,0.11355 q -1.7035,0.0169 -2.5479,0.77063 -0.8442,0.75375 -0.8345,1.73858 0.01,0.98483 0.8412,1.61547 0.8315,0.63062 2.5883,0.61321 l 20.4954,-0.20335 z m -20.1726,-15.55887 q 1.6503,-0.0164 2.434,-1.51484 0.7836,-1.49854 0.767,-3.17541 -0.017,-1.67689 -0.9353,-3.05201 -0.9719,-1.3746 -2.5424,-1.35903 -1.5704,0.0155 -2.3291,1.35411 -0.7586,1.33854 -0.7409,3.1219 0.018,1.78337 0.8571,3.21252 0.8393,1.42914 2.4896,1.41276 z"
         style="line-height:1em;fill:#9999cc;stroke-width:1.45373261px"
         id="path71"
         inkscape:connector-curvature="0" />
      <path
         d="m 1388.6666,457.73338 0.016,0.88906 q 0.067,3.64558 1.6273,6.24057 1.5626,2.59348 3.7185,3.88943 2.1586,1.29429 5.641,2.03049 3.4824,0.73622 6.0191,0.82276 2.5365,0.0866 6.6262,0.0106 4.0903,-0.0756 7.4599,-0.62703 3.3697,-0.55143 7.1248,-1.91042 7.7307,-2.81117 7.5575,-12.19167 -3.5421,5.66901 -8.788,5.76584 -5.2459,0.0969 -8.1109,-3.31903 -2.8647,-3.41599 -2.9534,-8.21735 -0.089,-4.80135 2.7864,-8.05647 2.8749,-3.25511 7.5875,-3.34211 6.2239,-0.11506 9.8281,4.79933 3.6042,4.91436 3.724,11.40515 0.2397,12.98149 -10.6328,16.65115 10.976,1.93199 11.1368,10.64562 0.077,4.17896 -2.7139,7.16568 -2.7911,2.98675 -7.3908,4.36136 -4.5997,1.37462 -8.5473,1.93659 -3.9477,0.56211 -7.5486,0.6286 -3.6011,0.0665 -6.7174,-0.0984 -8.1019,-0.42853 -14.0227,-3.16546 -2.9589,-1.27948 -5.0514,-3.82029 -2.0925,-2.54075 -2.1566,-6.00842 -0.156,-8.44688 10.6503,-10.87003 -10.9162,-3.53414 -11.1543,-16.42675 -0.12,-6.4907 3.3447,-11.53567 3.4643,-5.04475 9.5996,-5.15809 4.7122,-0.0869 7.7056,3.05973 2.9932,3.14678 3.0819,7.94814 0.089,4.80137 -2.6035,8.31998 -2.6925,3.51853 -8.0271,3.61695 -5.335,0.0985 -8.817,-5.44067 z m 37.7324,1.08215 q 2.6677,-0.0493 4.0458,-2.47614 1.3782,-2.427 1.3265,-5.22781 -0.052,-2.80081 -1.742,-5.21555 -1.6899,-2.41482 -4.3129,-2.36635 -2.6228,0.0484 -3.9149,2.34014 -1.2917,2.29187 -1.2408,5.04826 0.1478,8.00228 5.8381,7.89722 z m -24.3324,-7.55569 q -0.051,-2.75638 -1.3822,-4.99981 -1.3332,-2.2422 -3.9095,-2.19593 -2.5787,0.0477 -4.2233,2.52356 -1.6439,2.47617 -1.5922,5.27699 0.052,2.80084 1.5189,5.17527 1.467,2.37428 4.2233,2.3235 5.5125,-0.10168 5.3648,-8.10402 z m -10.1544,32.91912 q 0.053,2.84527 2.3134,4.84928 2.2605,2.00398 5.7889,2.82828 3.5286,0.82426 6.5148,1.16938 2.986,0.34503 5.6978,0.29502 2.7119,-0.0501 5.6832,-0.5052 2.971,-0.45503 6.377,-1.45182 3.4059,-0.99686 5.5918,-3.03852 2.186,-2.04166 2.1341,-4.84236 -0.052,-2.80083 -2.3106,-4.71591 -2.259,-1.91504 -5.7866,-2.69489 -6.5195,-1.43616 -10.6985,-1.35902 -4.1346,0.0764 -7.0173,0.48531 -2.8833,0.40903 -6.4252,1.27496 -3.5417,0.86587 -5.7283,2.86307 -2.1871,1.99715 -2.1345,4.84242 z"
         style="line-height:1em;fill:#3465a4;stroke-width:2.42837119px"
         id="path73"
         inkscape:connector-curvature="0" />
      <path
         d="m 1155.9948,374.28817 q -0.1344,12.15458 -8.6978,18.03048 l -2.7303,-1.15967 q 6.7313,-5.57343 6.8479,-16.11444 0.078,-7.09928 -2.8894,-11.11232 -2.9678,-4.01304 -7.3511,-4.0615 -4.3831,-0.0484 -7.7399,4.37899 -3.3569,4.42736 -3.4473,12.60206 l -0.03,2.68919 7.8519,0.0866 0.1765,-15.97305 4.5715,0.0505 -0.24,21.72778 q -0.032,2.90413 -1.7747,4.84826 -1.7427,1.94399 -4.5662,1.9128 -2.8236,-0.0312 -4.6336,-1.74562 -1.8098,-1.71428 -2.5106,-4.00797 -0.7007,-2.29368 -0.6704,-5.03653 l -13.3379,-0.14733 v -0.37655 q 4.0067,-2.37612 4.0553,-6.78629 0.029,-2.63532 -1.5943,-4.18622 -1.6234,-1.55085 -4.0435,-1.57751 -2.4203,-0.0269 -4.2421,1.78184 -1.822,1.80863 -1.8581,5.08939 -0.019,1.72105 0.6647,3.12706 0.6837,1.40602 1.9674,2.06568 l -1.6821,1.32614 q -3.2516,-2.67154 -3.2001,-7.35064 0.052,-4.67899 2.7948,-7.09604 2.7429,-2.41713 6.5078,-2.37544 3.7646,0.0415 6.5346,2.49263 2.7698,2.45102 2.7242,6.59231 -0.035,3.17309 -2.0505,5.46373 l 6.7764,0.0748 0.029,-2.63532 q 0.1088,-9.84195 4.2539,-15.01364 4.1985,-5.17127 9.8458,-5.1087 5.647,0.0623 9.7093,4.81355 4.0624,4.75144 3.9743,12.71101 z m -18.2438,10.60998 0.037,-3.38824 -7.852,-0.0866 q -0.029,2.58145 1.0208,4.95966 1.104,2.32514 3.309,2.34944 1.5597,0.0173 2.5404,-1.1014 0.9268,-1.11921 0.9444,-2.73284 z"
         style="line-height:1em;fill:#adadad;stroke-width:1.46868777px"
         id="path77"
         inkscape:connector-curvature="0" />
      <path
         d="m 1430.8182,321.20313 q 3.9591,0.96773 6.1144,4.88266 2.1554,3.91493 2.1554,9.54539 0,5.63046 -3.2112,10.29319 -3.2109,4.66273 -8.9294,4.66273 -2.3755,0 -4.7509,-1.31965 l -0.9676,-5.63046 q 1.7594,1.40762 4.2228,1.40762 2.4633,0 3.959,-2.77125 1.4955,-2.77124 1.4955,-7.21403 0,-4.44278 -2.1554,-8.09378 -2.1554,-3.651 -6.0262,-3.651 h -1.7598 v -3.95891 h 1.7598 q 2.9032,0 4.5747,-2.37535 1.5834,-2.37535 1.5834,-5.80641 0,-5.10261 -3.5189,-9.1495 -3.6071,-3.95891 -10.7332,-3.95891 -7.126,0 -12.6684,6.99408 -5.5424,6.99409 -5.5424,21.24618 v 3.87094 h 12.8443 v -26.12884 h 7.4779 v 35.54226 q 0,4.92665 -2.9911,7.87386 -2.9911,2.9472 -7.7418,2.9472 -4.7508,0 -8.6217,-4.44279 -3.8708,-4.4428 -3.8708,-12.71253 h -21.8182 v -0.61584 q 6.5102,-3.95891 6.5102,-11.17293 0,-4.31082 -2.6833,-6.81813 -2.6832,-2.50732 -6.6419,-2.50732 -3.9589,0 -6.9062,2.99118 -2.9472,2.99118 -2.9472,8.35771 0,2.81523 1.1438,5.10261 1.1435,2.28737 3.2552,3.34308 l -2.7274,2.1994 q -5.3666,-4.31082 -5.3666,-11.96473 0,-7.6539 4.4429,-11.6568 4.4427,-4.00291 10.6009,-4.00291 6.1583,0 10.7331,3.95892 4.5746,3.95891 4.5746,10.73306 0,5.19058 -3.2549,8.97354 h 11.085 v -4.31082 q 0,-8.53366 2.0234,-15.08786 2.0233,-6.55421 5.4103,-10.29319 6.7304,-7.43396 15.7478,-7.43396 9.0176,0 14.824,5.63046 5.8065,5.63045 5.8065,12.49258 0,6.86212 -6.5104,10.02925 z m -21.5541,17.59518 v -5.54248 h -12.8443 q 0,6.42224 2.9911,9.8533 1.6716,2.02346 4.2228,2.02346 2.5513,0 4.1349,-1.84751 1.4955,-1.84749 1.4955,-4.48677 z"
         style="line-height:1em;fill:#aea79f;stroke-width:2.40232897px"
         id="path79"
         inkscape:connector-curvature="0" />
      <path
         d="m 1172.519,298.65875 q 0.018,-2.61293 -1.6239,-4.14435 -1.6423,-1.53141 -3.9622,-1.54774 -2.3196,-0.0164 -4.1453,1.75728 -1.8256,1.77358 -1.8508,5.34638 -0.025,3.54611 2.5788,4.87101 l -1.6626,1.32148 q -3.234,-2.68919 -3.2014,-7.30182 0.033,-4.61262 2.7159,-7.04678 2.7365,-2.38046 6.4427,-2.35435 3.7062,0.026 6.4623,2.4186 2.7563,2.39252 2.73,6.12527 -0.026,3.73275 -1.9611,5.85223 l 6.719,0.0473 0.018,-2.61292 q 0.069,-9.75851 4.1581,-14.90249 4.0891,-5.14397 9.6882,-5.1045 5.5991,0.0395 9.699,4.73452 4.0998,4.69506 4.0441,12.58717 -0.085,12.05148 -8.6053,17.91082 l -2.7117,-1.13899 q 6.7051,-5.55217 6.7787,-16.00388 0.049,-6.9856 -2.962,-11.0064 -3.0652,-3.96784 -7.3577,-3.9981 -4.2927,-0.0302 -7.6036,4.39929 -3.3108,4.42952 -3.3677,12.48163 l -0.019,2.66625 7.7855,0.0549 0.1116,-15.83756 4.5326,0.032 -0.1519,21.54335 q -0.02,2.87955 -1.767,4.8137 -1.7468,1.93416 -4.5195,1.91461 -2.773,-0.0195 -4.6009,-1.71224 -3.2056,-2.95561 -3.1633,-8.95469 l -13.2247,-0.0932 v -0.37323 q 3.9627,-2.31848 3.9939,-6.74448 z m -17.6743,-4.33744 q -0.026,3.62611 -1.7276,6.78712 -1.7021,3.161 -4.9693,5.16445 l -2.6577,-1.24526 q 4.7712,-3.53935 4.8174,-10.09834 0.035,-5.06587 -2.6631,-8.01792 -2.6992,-2.95203 -6.3785,-2.97797 -3.6795,-0.026 -6.5261,2.83374 -2.8465,2.85963 -3.471,8.24132 l 0.2125,0.10811 q 2.4804,-3.87546 5.5467,-3.85386 3.0662,0.0216 4.809,2.43363 1.7428,2.41204 1.7216,5.42491 -0.021,3.01286 -1.6353,5.05459 -1.6144,2.04176 -4.9739,2.01811 -3.3595,-0.0237 -5.4176,-3.10452 -2.0581,-3.08085 -2.027,-7.50683 0.049,-6.93226 3.889,-10.77148 3.8401,-3.83923 9.0126,-3.80277 5.1726,0.0364 8.8275,3.55517 3.6547,3.51871 3.6108,9.75775 z m 36.4241,14.97511 0.024,-3.35948 -7.7855,-0.0548 q -0.018,2.5596 1.032,4.91343 1.1038,2.30084 3.2901,2.31626 1.5996,0.0113 2.5141,-1.10215 0.9143,-1.11345 0.9256,-2.71321 z m -51.2793,-10.73355 q 0.013,-1.83972 -0.9904,-3.23331 -1.0034,-1.39359 -2.8432,-1.40656 -1.8397,-0.013 -2.8889,1.31284 -1.0492,1.3258 -1.0622,3.16554 -0.013,1.83969 1.0439,3.20701 1.0569,1.36731 2.9234,1.38044 1.8664,0.0132 2.8355,-1.28656 0.969,-1.29969 0.9819,-3.1394 z"
         style="line-height:1em;fill:#3e9ade;stroke-width:1.4561671px"
         id="path81"
         inkscape:connector-curvature="0" />
      <path
         d="m 1177.9075,417.60491 q -0.05,4.51939 -3.3336,7.01107 -3.2836,2.49165 -6.9987,2.45038 -3.7151,-0.0412 -5.3148,-0.82493 l -0.9439,-4.68363 q 1.5142,1.62562 4.0798,1.65395 2.5661,0.0285 4.2675,-1.4082 1.6247,-1.43755 1.6557,-4.23345 0.031,-2.79589 -1.6295,-5.03597 -1.7366,-2.24081 -5.1071,-2.27825 l -3.1406,-0.0349 0.035,-3.14056 3.1406,0.0349 q 2.1448,0.0238 3.4631,-1.41713 1.2418,-1.44177 1.2638,-3.43339 0.037,-3.2938 -3.3853,-5.59175 -3.4219,-2.29793 -7.4051,-2.34213 -7.3536,-0.0816 -11.9955,4.00372 -4.6419,4.08538 -5.5788,12.57861 l 0.1514,0.1548 q 3.4316,-5.47777 8.4872,-5.42167 4.213,0.0468 6.5893,3.36732 2.3763,3.32056 2.3287,7.61016 -0.048,4.28957 -2.4949,7.36508 -2.4473,3.07553 -7.1199,3.02366 -4.6725,-0.0518 -7.7613,-4.75927 -3.0887,-4.70747 -3.0181,-11.06524 0.1139,-10.26436 6.3754,-15.32767 6.3381,-5.06247 15.8365,-4.95705 6.2811,0.0697 11.57,3.2694 5.2884,3.19952 5.2404,7.52742 -0.048,4.32788 -5.4406,7.02596 2.8997,1.02808 4.5582,3.45971 1.6583,2.43157 1.6252,5.41898 z m -30.0836,4.79906 q 2.5278,0.0281 4.081,-1.86995 1.5533,-1.89799 1.5823,-4.54078 0.029,-2.64266 -1.4427,-4.61255 -1.472,-1.96989 -3.9232,-1.9971 -2.4511,-0.0272 -4.1551,1.63929 -1.7039,1.6665 -1.7387,4.8071 -0.035,3.14059 1.5167,4.84322 1.5516,1.70261 4.0794,1.73067 z"
         style="line-height:1em;fill:#ad7aa9;stroke-width:2.09181118px"
         id="path83"
         inkscape:connector-curvature="0" />
      <path
         d="m 1342.8077,112.35861 q 0,12.86347 -7.5202,19.49311 -4.057,3.66117 -10.093,3.66117 -6.0357,0 -10.5875,-4.74961 -4.4529,-4.84853 -4.6507,-11.47817 h 3.2654 q 0.4947,4.15587 3.1665,7.17387 2.6714,3.01797 6.6296,3.01797 3.9578,0 6.7779,-3.31484 2.8201,-3.3148 3.859,-7.32229 1.0392,-4.00746 1.0392,-7.916 0,-3.90851 -0.8906,-7.56965 -0.8906,-3.661141 -3.4634,-6.728581 -2.5726,-3.06746 -6.6791,-3.06746 -4.1064,0 -7.3718,3.5622 -3.2653,3.562191 -3.2653,8.113881 0,0.89056 0.1972,1.48426 h -3.2651 v -0.9895 q 0,-6.827551 4.1557,-11.972951 4.2548,-5.04642 10.8847,-5.04642 8.6085,0 13.2097,7.27281 4.6013,7.272811 4.6013,16.376201 z m -40.174,10.58764 q 0,5.83803 -4.2048,9.10338 -4.206,3.26534 -9.0044,3.26534 -4.7988,0 -6.8771,-0.9895 l -1.2862,-6.03592 q 1.9789,2.07794 5.294,2.07794 3.3146,0 5.4915,-1.88005 2.0773,-1.88004 2.0773,-5.49171 0,-3.61168 -2.1761,-6.48121 -2.2759,-2.86957 -6.6297,-2.86957 h -4.057 v -4.05697 h 4.057 q 2.7704,0 4.4527,-1.88003 1.5831,-1.88005 1.5831,-4.45275 0,-4.254831 -4.4524,-7.173871 -4.4531,-2.91899 -9.5985,-2.91899 -9.4989,0 -15.436,5.34327 -5.9365,5.343291 -7.0249,16.326721 l 0.1973,0.19779 q 4.3537,-7.1244 10.8841,-7.1244 5.4421,0 8.5591,4.25486 3.1168,4.25483 3.1168,9.79605 0,5.54118 -3.1168,9.54865 -3.117,4.00747 -9.153,4.00747 -6.0354,0 -10.0922,-6.03595 -4.057,-6.03592 -4.057,-14.24879 0,-13.25929 8.0146,-19.888921 8.1138,-6.62963 20.3833,-6.62963 8.1141,0 14.9904,4.05693 6.8768,4.05696 6.8768,9.647621 0,5.59067 -6.9263,9.15287 3.7607,1.28634 5.9371,4.40327 2.1767,3.1169 2.1767,6.97597 z m -38.7874,6.62963 q 3.2654,0 5.2443,-2.47375 1.979,-2.47375 1.979,-5.8875 0,-3.41377 -1.9295,-5.93701 -1.9295,-2.52321 -5.096,-2.52321 -3.1664,0 -5.3429,2.1769 -2.177,2.17688 -2.177,6.23384 0,4.05693 2.0284,6.23385 2.0287,2.17688 5.2937,2.17688 z"
         style="line-height:1em;fill:#990000;stroke-width:2.7019906px"
         id="path85"
         inkscape:connector-curvature="0" />
      <path
         d="m 1458.4133,256.43563 q 5.0538,-6.6445 11.5887,-6.55943 6.5348,0.0849 11.3807,6.07401 4.8461,5.98907 4.7328,14.70227 -0.1132,8.71319 -5.5059,14.61258 -5.3926,5.89945 -15.9359,5.76248 -6.7962,-0.0884 -11.8997,-3.03066 -5.1034,-2.94225 -5.0467,-7.29895 l 0.015,-1.13266 2.8754,0.0374 -0.014,1.04564 q -0.033,2.52677 3.7742,4.62435 3.8073,2.09741 8.5997,2.1597 7.5806,0.0985 11.6545,-4.90302 4.0739,-5.00158 4.1694,-12.36407 0.096,-7.36278 -3.4234,-11.50442 -3.5193,-4.14175 -8.0502,-4.20069 -2.9625,-0.0385 -4.9894,1.67813 -2.0265,1.71643 -2.065,4.67888 l -0.1619,12.45992 -7.4935,-0.0974 0.1213,-9.32322 q 0.063,-4.87944 -1.9078,-7.43238 -2.0584,-2.55397 -5.5436,-2.59933 -3.4853,-0.0454 -6.6254,3.53031 -3.1405,3.57587 -3.2188,9.5882 l -0.019,1.48128 q -0.1004,0.95725 -0.1118,1.82862 -0.011,0.87124 0.4053,2.35828 l -2.8754,-0.0374 q -0.3327,-1.22444 -0.3077,-3.14139 l 0.042,-3.2239 q 0.098,-7.49354 4.5141,-12.05487 4.5028,-4.47312 10.8633,-4.39036 6.3608,0.0828 10.4582,6.67212 z m -31.934,23.02725 q -0.067,5.14082 -3.8074,7.96808 -3.7406,2.82719 -7.9664,2.77221 -4.226,-0.0549 -6.0444,-0.95011 l -1.0636,-5.32975 q 1.7189,1.85243 4.6377,1.89041 2.919,0.038 4.8576,-1.59265 1.8511,-1.63173 1.8925,-4.81205 0.041,-3.1804 -1.8427,-5.73213 -1.971,-2.55297 -5.805,-2.60284 l -3.5723,-0.0464 0.046,-3.57242 3.5723,0.0465 q 2.4398,0.0317 3.9427,-1.60457 1.4154,-1.63722 1.4449,-3.90269 0.049,-3.74667 -3.8388,-6.36808 -3.8876,-2.62139 -8.4184,-2.68045 -8.3647,-0.10886 -13.6539,4.52832 -5.2891,4.63723 -6.3735,14.29649 l 0.1711,0.1768 q 3.9157,-6.22373 9.6664,-6.14895 4.7921,0.0623 7.4882,3.84477 2.6959,3.78234 2.6324,8.66186 -0.063,4.87938 -2.854,8.37259 -2.7906,3.49321 -8.1055,3.42377 -5.3151,-0.0692 -8.8183,-5.43074 -3.5033,-5.3616 -3.4095,-12.59331 0.1518,-11.67577 7.2854,-17.42183 7.2208,-5.74495 18.0253,-5.6043 7.1448,0.0929 13.1541,3.74414 6.0094,3.65107 5.9452,8.57416 -0.064,4.92302 -6.2041,7.9804 3.2965,1.17581 5.1776,3.94541 1.8814,2.76952 1.8372,6.16776 z m -34.2318,5.39371 q 2.8751,0.0374 4.6464,-2.11832 1.7709,-2.1557 1.8099,-5.16171 0.039,-3.00609 -1.631,-5.25009 -1.6703,-2.24392 -4.4585,-2.28021 -2.7883,-0.0363 -4.73,1.85568 -1.9419,1.89196 -1.9884,5.46445 -0.047,3.57246 1.7147,5.51265 1.7614,1.94011 4.6369,1.97755 z"
         style="line-height:1em;fill:#ffcc00;stroke-width:2.37950778px"
         id="path87"
         inkscape:connector-curvature="0"
         inkscape:transform-center-x="35.455329"
         inkscape:transform-center-y="-3.7625403" />
      <path
         d="m 1568.7998,368.21561 q 8.3228,0 13.1995,5.00674 4.8767,5.00674 4.8767,12.54936 0,7.54266 -4.3566,12.61443 -4.3565,5.07177 -10.2734,5.07177 -5.9172,0 -9.2984,-2.47086 l -0.6502,-6.24219 q 3.3812,2.08075 5.332,2.08075 4.5516,0 7.0874,-3.57626 2.5358,-3.57625 2.5358,-8.38793 0,-7.93278 -3.7712,-9.94849 -3.7713,-2.01568 -12.0943,-2.01568 h -0.9103 q 0,5.07176 -1.1054,10.0785 -1.1054,5.00674 -3.2512,9.81842 -2.1457,4.81169 -6.3722,7.73773 -4.2265,2.92601 -9.6883,2.92601 -11.0538,0 -16.1255,-10.66374 -4.1615,10.66374 -12.4195,10.66374 -8.2577,0 -13.1992,-5.65695 -4.9419,-5.657 -4.9419,-13.45974 0,-8.25788 4.5517,-12.22426 3.2508,-3.05608 10.9234,-3.77131 2.731,-0.12997 6.8924,-0.12997 h 4.8118 q 0,-10.01352 4.7468,-17.88125 4.7466,-7.86776 14.1748,-7.86776 9.4282,0 14.5,7.67266 5.0718,7.6727 5.9821,18.07635 z m -17.9464,0 q 0,-6.76238 -3.3812,-12.61442 -3.5112,-5.72201 -9.8833,-5.72201 -6.3723,0 -9.5582,5.72201 -3.1862,5.722 -3.1862,12.61442 z m 0,4.68164 h -26.0089 q -0.13,1.69057 -0.13,5.07176 0,7.02245 3.1862,13.00454 3.186,5.9821 9.4281,5.9821 4.0314,0 6.8923,-2.40585 2.8611,-2.40584 4.2916,-6.43727 2.3408,-7.28254 2.3408,-15.21528 z m -30.3005,11.31393 v -11.31393 h -4.4215 q -13.1345,0 -13.1345,10.66372 0,4.81168 2.4058,9.10316 2.4059,4.29152 6.8272,4.29152 8.323,0 8.323,-12.74447 z"
         style="line-height:1em;fill:#003399;stroke-width:3.55110765px"
         id="path89"
         inkscape:connector-curvature="0" />
      <path
         d="m 1524.8653,341.1135 h -41.834 v -2.13821 q 4.8341,-3.34678 7.2513,-8.18104 2.4171,-4.83425 2.4171,-9.85443 0,-7.9021 -4.8343,-12.73632 -4.8341,-4.83421 -11.3417,-4.83421 -6.5077,0 -11.3886,4.9272 -4.8807,4.92716 -5.9034,14.50267 l 0.3718,0.18583 q 4.2765,-6.78653 9.6222,-6.78653 5.3457,0 8.4136,4.09051 3.0679,4.09052 3.0679,9.34311 0,5.25259 -2.9285,8.92475 -2.9285,3.67218 -8.8319,3.67218 -5.9033,0 -9.3433,-5.02018 -3.3468,-5.02017 -3.3468,-12.55045 0,-12.92226 6.5079,-19.66229 6.5075,-6.74002 15.5719,-6.74002 9.0642,0 15.6183,5.7639 6.554,5.76386 6.554,15.66472 0,9.90092 -8.1808,18.1749 h 24.6354 v -38.67386 h 7.9021 z m -56.8947,-20.26665 q -2.9748,0 -5.0202,2.04528 -2.0452,2.04524 -2.0452,5.85687 0,3.81161 1.9058,5.85688 1.9059,2.04525 4.9738,2.04525 3.0678,0 4.8807,-2.32416 1.8127,-2.32417 1.8127,-5.53148 0,-3.20735 -1.7662,-5.57799 -1.7664,-2.37065 -4.7414,-2.37065 z"
         style="line-height:1em;fill:#5e2750;stroke-width:2.53859878px"
         id="path91"
         inkscape:connector-curvature="0" />
      <path
         d="m 1012.1477,516.11951 v 0.29297 l 0.037,2.49023 q 0.037,2.78321 -1.7029,4.39453 -1.7395,1.61133 -4.1931,1.61133 -3.3691,0 -5.1636,-2.49023 -1.79441,-2.49024 -1.79441,-5.96924 0,-6.15234 4.61421,-8.71583 l 0.8423,0.95216 q -2.0507,1.20849 -2.9297,2.85644 -0.8789,1.64795 -0.8789,4.37621 0,2.72828 1.3001,4.74244 1.3,2.01416 3.6804,2.01416 1.5015,0 2.5269,-1.24512 0.9887,-1.24512 0.9521,-3.66211 v -3.11279 q 0,-3.14942 1.9043,-4.99878 1.9041,-1.84937 4.4311,-1.84937 3.0762,0 4.779,2.30713 1.703,2.30713 1.703,5.45654 0,3.14942 -1.3368,5.65796 -1.3366,2.50855 -4.0101,3.75368 l -0.8054,-0.91553 q 2.1972,-0.98878 3.3325,-3.05787 1.135,-2.0691 1.135,-4.59594 0,-2.52687 -1.2817,-4.50441 -1.3184,-1.94091 -3.5155,-1.94091 -1.538,0 -2.5817,1.53808 -1.0437,1.5381 -1.0437,4.61426 z"
         style="line-height:1em;fill:#85377d"
         id="path93"
         inkscape:connector-curvature="0" />
      <path
         d="m 1296.6385,434.31869 -57.5221,-0.44632 0.1161,-14.94677 -22.1029,-0.17139 v -0.63418 q 6.8254,-4.02359 6.8774,-10.72703 0.035,-4.34812 -2.5732,-6.95024 -2.6069,-2.60208 -6.1851,-2.62983 -3.5782,-0.0278 -6.1824,2.85103 -2.6041,2.87869 -2.6452,8.17796 -0.041,5.29929 4.0113,8.41087 l -2.7366,2.42474 q -5.4,-4.57153 -5.3406,-12.22603 0.059,-7.6545 4.2566,-11.51743 4.2878,-3.86214 10.2665,-3.81573 5.9787,0.0464 10.4316,4.06693 4.4532,4.02063 4.3984,11.0863 -0.037,4.80107 -3.4176,8.48914 l 10.9608,0.0849 0.039,-5.07276 q 0.064,-8.33393 5.6306,-13.45454 5.5657,-5.1205 14.3979,-5.05195 18.2531,0.14174 18.2388,25.32594 l -0.013,1.6305 -30.6181,-0.23744 -0.092,11.7762 42.1226,0.32679 0.2925,-37.68374 7.6998,0.0598 z m -22.6876,-18.20389 0.014,-1.90228 q -0.019,-9.24048 -3.1571,-13.43198 -3.2287,-4.19227 -9.5243,-4.24117 -6.2959,-0.0489 -10.2665,3.81584 -3.9709,3.86466 -4.022,10.47741 l -0.04,5.07283 z"
         style="line-height:1em;fill:#e05a2c;stroke-width:2.47367525px"
         id="path95"
         inkscape:connector-curvature="0"
         inkscape:transform-center-x="-3.1920319"
         inkscape:transform-center-y="-10.931926" />
      <path
         d="m 1338.7814,194.16106 q 0,6.86885 -5.4735,10.62525 -5.4738,3.75639 -12.7716,3.75639 -4.2931,0 -7.7275,-1.28791 l -1.5025,-6.3322 q 3.005,2.5758 8.0493,2.5758 5.0443,0 7.7273,-2.1465 2.5756,-2.25385 2.5756,-6.3322 0,-4.07839 -3.5951,-6.70787 -3.5953,-2.62948 -8.1028,-2.62948 h -4.2932 v -4.82965 h 3.9713 q 5.366,0 8.2639,-2.46846 2.7901,-2.46852 2.7901,-6.3859 0,-3.91738 -3.3267,-6.22485 -3.3272,-2.30749 -8.1568,-2.30749 -4.8296,0 -8.5324,2.30749 -3.7029,2.30747 -3.7029,6.27851 v 35.2028 h -9.1226 v -32.94892 q 0,-4.29306 -4.293,-7.29815 -4.4003,-3.00512 -9.6591,-3.00512 -9.0153,0 -14.0594,5.20528 -5.0443,5.20531 -6.2249,16.90379 l 0.4291,0.21451 q 4.8297,-7.72743 11.2692,-7.72743 6.4395,0 9.7666,4.50769 3.3267,4.50764 3.3267,10.57154 0,6.06392 -3.5413,10.46425 -3.5418,4.40035 -10.2496,4.40035 -6.7079,0 -10.679,-5.79558 -3.8638,-5.90291 -3.8638,-14.48894 0,-14.59627 7.7813,-22.53837 7.7811,-7.94207 19.8012,-7.94207 12.0205,0 17.0649,8.69335 5.3663,-8.47872 16.6354,-8.47872 7.4054,0 12.9861,3.97105 5.5811,3.97105 5.5811,10.35692 0,6.38584 -7.2985,10.03493 3.8641,1.60988 6.0108,4.82965 2.1463,3.21975 2.1463,6.97615 z m -61.8191,5.15162 q 2.2538,-2.79046 2.2538,-6.49319 0,-3.7027 -2.0392,-6.3322 -2.0392,-2.62948 -5.4735,-2.62948 -3.4345,0 -5.7957,2.36118 -2.3611,2.36115 -2.3611,6.86884 0,4.50765 1.9855,6.76149 1.9856,2.25385 5.5273,2.25385 3.5417,0 5.9029,-2.79049 z"
         style="line-height:1em;fill:#003399;stroke-width:2.93070173px"
         id="path97"
         inkscape:connector-curvature="0" />
      <path
         d="m 1297.7748,378.57336 -66.0766,0.87057 -0.046,-3.4569 21.2355,-0.27987 q 4.642,-0.061 7.2652,-3.40493 2.6232,-3.34389 2.5693,-7.44291 -0.054,-4.09883 -2.1145,-6.78841 -2.0607,-2.68936 -5.6163,-2.64261 -3.5557,0.0468 -5.7448,2.59476 -2.1891,2.54786 -2.1553,5.11588 0.034,2.56796 1.0475,4.53039 l -4.4446,0.0585 q -1.2242,-2.94749 -1.258,-5.51552 -0.069,-5.23471 3.7328,-9.08806 3.8021,-3.85347 10.222,-3.93796 6.4201,-0.0847 10.5255,4.10913 4.0078,4.29398 4.0951,10.91139 0.087,6.61748 -5.3827,11.33252 l 23.7047,-0.31243 -0.5412,-41.088 8.3954,-0.11069 z"
         style="line-height:1em;fill:#dd4814;stroke-width:2.69728851px"
         id="path99"
         inkscape:connector-curvature="0" />
      <path
         d="m 1126.5216,449.02043 q -3.5935,-4.79628 -3.6688,-10.66299 -0.075,-5.86682 3.1231,-9.69616 3.1982,-3.82938 9.0935,-3.90488 5.8952,-0.0755 9.9703,4.51529 4.0751,4.59073 4.1469,10.20122 0.072,5.61049 -2.4516,8.7476 -2.5234,3.13706 -5.7701,3.17867 -3.2466,0.0416 -5.5286,-2.43584 -2.282,-2.4774 -2.3359,-6.69238 -0.098,-7.63255 6.327,-13.06981 -1.5532,-1.17647 -3.6037,-1.15025 -4.7846,0.0613 -7.5892,3.48686 -2.8045,3.42549 -2.7455,8.03921 0.041,3.1897 1.5006,5.96248 1.4597,2.77278 4.2156,4.44655 l 0.012,0.96829 -33.8334,0.43299 -0.025,-1.99358 11.7904,-0.1509 q 2.1076,-0.027 3.3366,-1.92271 1.2289,-1.8956 1.1987,-4.25945 -0.03,-2.36386 -1.1329,-3.94484 -1.1023,-1.58119 -3.0963,-1.55542 -1.9935,0.0255 -3.3722,1.35339 -1.3787,1.32794 -1.3496,3.60633 0.013,1.02524 0.6536,2.09946 l -2.5061,0.032 q -0.4148,-1.24796 -0.4345,-2.78586 -0.048,-3.70231 2.1477,-5.7813 2.252,-2.07962 5.6981,-2.1238 3.446,-0.0441 5.8718,2.54543 2.4258,2.58947 2.474,6.34878 0.048,3.75925 -2.8817,6.30343 z m 16.9351,-3.23609 q 1.2844,-2.0103 1.2411,-5.39941 -0.043,-3.38908 -0.9891,-6.05447 -1.0025,-2.66472 -2.5553,-3.84142 -5.918,4.97504 -5.8444,10.72794 0.038,2.96187 1.5141,4.79443 1.4762,1.83262 3.3843,1.80818 1.9081,-0.0244 3.2497,-2.03553 z"
         style="line-height:1em;fill:#b79eb0;stroke-width:1.55549264px"
         id="path101"
         inkscape:connector-curvature="0" />
      <path
         d="m 1492.2197,445.67225 q 4.4644,-7.22157 14.1149,-7.22157 9.6507,0 16.9379,5.38334 7.2872,5.38337 7.2872,13.78663 0,8.4033 -7.0902,14.04926 -7.2217,5.51464 -21.0083,5.51464 H 1470.03 q -6.4337,0 -9.9132,2.75734 -3.4794,2.75734 -3.4794,6.03988 0,3.28251 2.1009,5.31769 2.1006,2.03519 5.9084,2.03519 8.1407,0 28.8203,-7.81245 20.6801,-7.81242 23.5686,-7.81242 6.3026,0 9.9132,3.6108 3.6108,3.61077 3.6108,8.14065 0,4.5299 -3.4795,7.68115 -3.4793,3.15126 -8.994,3.15126 -5.5146,0 -9.585,-3.21691 -4.0703,-3.21689 -4.0703,-7.28722 0,-2.36343 1.7068,-4.72685 l -0.1311,-0.26245 q -0.9192,0.39389 -3.9392,1.50995 -3.0199,1.11606 -4.5954,1.90384 -24.6845,12.07978 -37.6833,12.07978 -6.4337,0 -10.2414,-3.41385 -3.6763,-3.54514 -3.6763,-9.19111 0,-5.64596 6.3023,-10.37282 6.4338,-4.72685 18.6447,-4.72685 h 29.9364 q 8.272,0 12.9988,-4.85815 4.7269,-4.85814 4.7269,-11.09497 0,-6.2368 -3.7421,-9.71627 -3.7421,-3.47949 -8.5346,-3.47949 -4.7925,0 -8.3376,3.47949 -3.5452,3.47948 -3.5452,9.91323 v 11.55453 h -11.0293 v -13.91796 q 0,-5.12073 -4.4642,-8.14065 -4.4639,-3.01995 -11.5542,-3.01995 -7.0902,0 -12.0797,5.12075 l 0.3941,0.39393 q 1.9694,-1.18171 5.3176,-1.18171 3.348,0 6.4993,3.21686 3.1511,3.21688 3.1511,7.87808 0,4.66121 -3.0198,8.53458 -3.02,3.87338 -8.6658,3.87338 -5.6459,0 -9.0598,-3.61077 -3.4137,-3.61079 -3.4137,-9.12543 0,-9.1911 7.6153,-14.57447 7.7467,-5.38334 19.1044,-5.38334 11.3572,0 19.1039,7.22158 z m 19.4327,46.34938 q 2.1008,1.44431 4.7268,1.44431 2.626,0 4.3986,-1.50996 1.7726,-1.50999 1.7726,-3.93907 0,-2.42908 -1.8382,-4.07032 -1.8381,-1.64125 -4.4642,-1.64125 -2.6259,0 -4.6612,1.64125 -2.0351,1.64126 -2.0351,4.13597 0,2.49473 2.1007,3.93907 z m -54.7522,-25.86639 q 5.6458,0 5.6458,-6.89333 0,-6.8933 -5.6458,-6.8933 -2.4947,0 -4.0705,2.10079 -1.5755,2.10083 -1.5755,4.66121 0,2.56036 1.5755,4.79251 1.5758,2.23212 4.0705,2.23212 z"
         style="line-height:1em;fill:#bb90b7;stroke-width:3.58540106px"
         id="path103"
         inkscape:connector-curvature="0" />
      <path
         d="m 1321.3151,233.56606 q 0.011,8.6463 -4.8448,14.95704 -4.8556,6.31074 -12.7814,6.32073 -7.9258,0.01 -13.1585,-7.00859 -4.2242,7.0305 -11.8797,7.04016 -5.8543,0.008 -10.3182,-4.44527 -4.4639,-4.45265 -4.4729,-11.56786 l -0.011,-8.91652 q -0.01,-5.40391 -2.8937,-9.13809 -2.8868,-3.73409 -8.2907,-3.72726 -3.6026,0.004 -5.4032,0.63725 4.5081,3.77711 7.2615,8.86234 2.7534,5.08525 2.7613,11.25484 0.01,6.16949 -3.6782,11.57808 -3.776,5.31863 -9.9906,5.32645 -6.2146,0.008 -9.779,-5.43666 -3.5645,-5.44451 -3.5718,-11.20872 -0.01,-5.7642 2.6433,-10.85628 2.6505,-5.09207 6.9694,-8.52 -2.163,-1.07809 -6.3961,-1.07277 -7.4754,0.01 -11.6117,5.32858 -4.1364,5.31908 -4.1269,12.79453 0.015,11.88871 8.6683,17.46187 l -3.0604,1.53497 q -9.8258,-7.0127 -9.8427,-20.34247 -0.011,-9.00656 5.2043,-15.49788 5.3059,-6.40138 14.7626,-6.41335 6.0344,-0.008 10.6312,2.6886 3.9595,-2.70697 11.2098,-2.7161 7.2504,-0.009 11.1291,4.62443 3.8787,4.6335 3.8872,11.38842 l 0.011,8.55626 q 0.01,6.75494 2.7596,9.99384 2.7511,3.23892 6.3988,3.23433 3.6476,-0.004 6.4369,-2.16973 2.6993,-2.16497 2.6956,-5.04709 l -0.038,-29.9018 7.6556,-0.01 0.032,25.39852 q 0.01,5.0437 2.4416,7.78764 2.4352,2.74396 5.9478,2.73953 5.584,-0.007 9.0453,-5.01009 3.4613,-5.00298 3.4535,-11.12747 -0.01,-6.12446 -2.7608,-10.93954 -2.753,-4.81506 -7.9799,-7.24025 l 2.6089,-2.34501 q 6.0386,3.23478 9.153,8.85998 3.1142,5.6252 3.1227,12.29008 z m -70.7875,3.60172 q -0.013,-10.17741 -8.0371,-16.92229 -9.2673,7.48718 -9.2547,17.57454 0,4.14305 2.3514,7.69765 2.3462,3.55466 6.3992,3.54955 4.053,-0.004 6.3,-3.7006 2.247,-3.69555 2.2412,-8.19885 z"
         style="line-height:1em;fill:#ffdb9d;stroke-width:2.45939946px"
         id="path105"
         inkscape:connector-curvature="0" />
      <path
         d="m 1633.3124,205.18467 q -0.092,6.91677 -3.6312,12.98958 -3.5394,6.07285 -10.1891,9.9226 l -5.2967,-1.87957 q 4.6236,-3.5573 7.1942,-8.79154 2.5706,-5.23425 2.6482,-11.08687 0.127,-9.5771 -5.5802,-16.624 -5.7069,-7.04688 -15.6034,-7.17809 -3.2986,-0.0438 -6.4014,1.19225 11.7867,10.05438 11.6076,23.56867 -0.127,9.57709 -5.0407,14.93996 -4.9138,5.36279 -11.4051,5.27673 -6.4913,-0.086 -10.9981,-5.36072 -4.5066,-5.27485 -4.3808,-14.74562 0.086,-6.49119 3.2529,-12.51589 3.0598,-6.02594 8.325,-9.78762 -2.8563,-1.31503 -7.4851,-1.37643 -4.6288,-0.0614 -8.6007,2.49348 -3.9723,2.55509 -4.0375,7.45015 l -0.433,32.66836 -9.045,-0.11993 0.4333,-32.66848 q 0.056,-4.25645 -4.1605,-7.29246 -4.3235,-3.03742 -9.5376,-3.10654 -8.9387,-0.11852 -14.0086,4.97618 -5.07,5.09474 -6.3944,16.67819 l 0.4229,0.21835 q 4.7839,-7.5997 11.1688,-7.51507 6.3846,0.0846 9.7285,4.75872 3.3439,4.67408 3.2641,10.68637 -0.08,6.01227 -3.3813,10.17256 -3.3012,4.16026 -10.0053,4.07147 -6.7043,-0.0888 -10.7753,-6.10296 -3.9647,-6.01267 -3.8489,-14.73851 0.1893,-14.25927 8.0633,-22.13727 7.8741,-7.87792 20.1044,-7.18361 4.3601,0.27063 8.9578,2.67322 4.598,2.4024 6.0382,6.14665 2.3993,-4.33195 7.3759,-6.3948 4.9763,-2.06256 10.7228,-1.98638 5.7462,0.0762 10.4898,3.54481 6.001,-3.1133 13.5564,-3.01313 12.344,0.16368 19.6863,8.29658 7.3421,8.13287 7.1995,18.88051 z m -33.1251,1.90223 q 0.1623,-12.23739 -9.2053,-20.13106 -11.177,8.15341 -11.3424,20.60373 -0.081,6.06553 2.9582,9.67124 3.0387,3.60567 7.2424,3.66129 4.2033,0.0557 7.2307,-3.52271 3.0275,-3.5785 3.1164,-10.28249 z m -65.6101,-4.382 q -3.4052,-0.0452 -5.7774,2.26489 -2.3722,2.31013 -2.4286,6.56657 -0.057,4.25655 2.3051,6.73574 2.3619,2.47921 5.8205,2.52503 3.4585,0.0458 5.4085,-2.53587 1.9498,-2.58169 1.9985,-6.25292 0.049,-3.67128 -1.9364,-6.46479 -1.9851,-2.79355 -5.3902,-2.83865 z"
         style="line-height:1em;fill:#ffdb9d;stroke-width:2.90601373px"
         id="path107"
         inkscape:connector-curvature="0" />
      <path
         d="m 1674.0931,368.41892 q 0,11.95384 -9.0055,18.16984 -9.0052,6.21599 -20.4012,6.21599 -11.3961,0 -20.1622,-3.18769 -8.7661,-3.18768 -14.0256,-8.4474 l 3.9844,-4.78152 q 3.9846,4.14401 11.9538,6.69417 7.9691,2.55012 16.6557,2.55012 8.6865,0 14.6635,-3.34707 5.9771,-3.34707 5.9771,-10.04124 0,-4.30339 -4.1441,-7.33169 -4.1442,-3.02833 -11.954,-3.02833 h -15.7792 q -9.8817,0 -15.779,-5.81754 -5.897,-5.81754 -5.897,-14.10555 0,-11.79446 9.0847,-17.85106 9.0848,-6.05661 20.4809,-6.05661 11.3961,0 20.1623,3.10799 8.7661,3.108 14.026,8.52708 l -4.3036,4.46276 q -8.9255,-9.24428 -25.8203,-9.24428 -9.7226,0 -16.2573,3.8252 -6.5348,3.82524 -6.5348,10.83817 0,4.14401 3.1877,7.01294 3.1878,2.86892 8.7661,2.86892 h 15.6198 q 12.2727,0 18.8872,5.41906 6.6146,5.41908 6.6146,13.54774 z"
         style="line-height:1em;fill:#ffff99;stroke-width:4.35226345px"
         id="path109"
         inkscape:connector-curvature="0" />
      <path
         d="m 1618.1318,250.232 q 8.8855,-10.17548 23.5037,-10.17548 14.6183,0 24.4354,9.53051 9.8173,9.53057 9.8173,24.00548 0,14.47495 -9.8173,24.0771 -9.8171,9.60218 -23.8619,9.60218 -14.0452,0 -23.5039,-9.17226 -9.3155,-9.17221 -9.3155,-23.4322 0,-14.25991 8.7422,-24.43533 z m -4.156,23.36051 q 0,10.31874 7.309,17.9145 7.3089,7.59577 17.5561,7.59577 10.2471,0 17.4847,-7.23743 7.2373,-7.23749 7.2373,-17.55628 0,-10.31875 -7.1657,-17.77115 -7.166,-7.45246 -17.5563,-7.45246 -10.3904,0 -17.6994,7.02247 -7.1657,7.16583 -7.1657,17.48458 z"
         style="line-height:1em;fill:#333333;stroke-width:3.91348577px"
         id="path111"
         inkscape:connector-curvature="0" />
      <path
         d="m 1061.3873,523.51441 v -0.25635 q 0,-2.49023 -0.9155,-3.73535 -0.9155,-1.24511 -2.3071,-1.24511 -1.8677,0 -3.479,1.90429 -1.5748,1.94092 -1.5748,4.55933 0,2.6184 1.0437,4.59595 1.0437,1.97754 3.1312,3.00293 l -0.8057,0.87889 q -2.5269,-1.28174 -3.772,-3.6621 -1.2451,-2.38036 -1.2451,-5.09033 0,-3.88182 2.1606,-6.18896 2.1607,-2.30712 4.6875,-2.30712 2.5269,0 4.1199,1.77611 1.593,1.77612 1.593,5.1819 v 2.85644 q 0,2.85645 1.2818,4.26637 1.2817,1.40992 2.9297,1.40992 1.6479,0 2.7832,-0.84229 1.1352,-0.84228 1.1352,-2.12403 v -12.15819 h 3.1128 v 10.32714 q 0,2.0874 0.9155,3.20434 0.9156,1.11694 2.3072,1.11694 1.9409,0 3.6071,-1.94092 1.6663,-1.94092 1.6663,-5.05372 0,-2.16064 -1.0986,-4.06493 -1.062,-1.94092 -3.0762,-2.92969 l 0.9888,-0.95215 q 2.417,1.28174 3.6621,3.57056 1.2451,2.28881 1.2451,4.88891 0,3.8086 -2.2156,6.29883 -2.2156,2.49023 -5.2368,2.49023 -3.0212,0 -5.1454,-2.85645 -1.9408,2.85645 -5.2001,2.85645 -2.5268,0 -4.4677,-1.83105 -1.9043,-1.86768 -1.8677,-4.98048 v -0.10985 z"
         style="line-height:1em;fill:#f5c8b9"
         id="path113"
         inkscape:connector-curvature="0" />
      <path
         d="m 1203.4823,448.86186 q 0,5.67542 -3.103,10.10439 -3.1028,4.42894 -8.4331,4.42894 -5.3307,0 -8.9906,-4.34938 -2.9702,4.24331 -7.5847,4.24331 -3.7129,0 -6.471,-2.81119 -2.7582,-2.81119 -2.7582,-7.58492 v -3.76594 q 0,-3.81899 -1.326,-5.70194 -1.326,-1.88297 -3.3416,-1.88297 -3.1294,0 -5.198,2.97031 -2.0155,3.02337 -2.0155,6.70974 0,3.68636 1.4851,6.39148 1.4321,2.75816 4.5084,4.29636 l -1.1669,1.27299 q -3.6067,-1.85645 -5.4366,-5.30415 -1.8299,-3.4477 -1.8299,-7.31971 0,-5.03892 2.7846,-8.69878 2.7847,-3.65984 7.4522,-3.65984 3.3947,0 5.6755,2.5725 2.2807,2.5725 2.2807,7.5584 v 3.87203 q 0,4.24329 1.7769,6.33845 1.777,2.09513 4.1107,2.09513 2.3339,0 3.978,-1.29952 1.6443,-1.29951 1.6443,-3.209 v -17.39756 h 4.5084 v 15.16983 q 0,2.91728 2.1747,4.80025 2.1747,1.88297 5.3832,1.88297 3.2093,0 5.6756,-2.86424 2.4665,-2.86424 2.4665,-8.69879 h -0.053 q -1.1668,2.06861 -2.3603,2.99684 -1.1935,0.92822 -3.66,0.92822 -2.4664,0 -4.1102,-2.3073 -1.6443,-2.30729 -1.6443,-5.3837 0,-3.07639 1.9095,-5.06544 1.909,-1.98905 4.508,-1.98905 3.3417,0 5.2512,3.12943 1.9095,3.12945 1.9095,7.53187 z m -6.3119,-7.85013 q -1.5383,0 -2.6521,1.21996 -1.1139,1.21997 -1.1139,3.23553 0,2.01557 0.9546,3.42116 0.9548,1.40559 2.7054,1.40559 1.7502,0 2.8377,-1.27299 1.0873,-1.27299 1.0873,-3.31509 0,-2.04208 -1.1404,-3.36811 -1.1404,-1.32604 -2.6786,-1.32605 z"
         style="line-height:1em;fill:#ffdb9d;stroke-width:1.44838321px"
         id="path115"
         inkscape:connector-curvature="0" />
      <path
         d="m 1598.5753,266.2896 q 0.071,7.78317 -3.8194,14.68997 -3.8901,6.90682 -11.1471,11.35097 l -6.2208,-2.01115 q 10.6257,-8.48815 10.4999,-22.35184 -0.1015,-11.18822 -6.8651,-19.39716 -6.7637,-8.20896 -17.7086,-8.10972 -3.77,0.0341 -7.2812,1.76872 6.1268,5.05255 10.0215,12.07125 3.8947,7.01871 3.9631,14.55861 0.099,10.94499 -5.3778,17.19735 -5.4771,6.25229 -12.8955,6.31943 -7.4182,0.0673 -12.7623,-5.84368 -5.344,-5.91093 -5.4421,-16.73429 -0.066,-7.29665 3.459,-14.20022 3.5253,-6.90348 9.3207,-11.57764 -4.641,-2.14716 -8.6541,-2.11067 -8.7559,0.0794 -14.9494,7.79768 -6.1934,7.71831 -6.1041,17.56881 0.1432,15.80931 11.8882,23.48649 l -4.1159,2.10492 q -13.3414,-9.36536 -13.5046,-27.36376 -0.118,-13.01246 7.7107,-21.47523 7.9503,-8.46387 19.1385,-8.56532 7.1747,-0.0652 14.2634,3.76242 6.1668,-3.9478 14.0716,-4.01947 14.4716,-0.13128 23.4353,9.27398 8.9638,9.40529 9.0761,21.80955 z m -37.6797,2.53067 q -0.1245,-13.742 -11.0305,-22.76467 -12.4344,10.20727 -12.311,23.82769 0.064,7.05346 3.5662,11.03515 3.5023,3.98171 8.245,3.93863 4.7429,-0.043 8.1708,-4.26995 3.4279,-4.22698 3.3595,-11.76689 z"
         style="line-height:1em;fill:#ccf4cc;stroke-width:3.32092571px"
         id="path119"
         inkscape:connector-curvature="0" />
      <path
         d="m 1262.6208,293.14133 h -50.162 v -33.71556 h 6.4292 v 31.09905 h 12.634 v -17.26895 q 0,-6.80292 4.4108,-10.6903 4.4853,-3.88736 10.802,-3.88736 6.3171,0 11.1017,4.41067 4.7843,4.4107 4.7843,12.40972 z m -2.4669,-2.61651 v -14.12913 q 0,-6.65341 -3.3266,-10.20438 -3.3269,-3.55097 -7.8869,-3.55097 -4.5602,0 -7.8497,3.25193 -3.2891,3.25195 -3.2891,8.85875 v 15.7738 z"
         style="line-height:1em;fill:#d7d3cf;stroke-width:2.04137421px"
         id="path121"
         inkscape:connector-curvature="0" />
      <path
         d="m 1120.2064,415.03172 q 0,3.91265 -3.5925,7.04277 -3.5926,3.13013 -9.4971,3.13013 -2.4188,0 -4.98,-0.99596 l -0.4267,-3.98379 q 1.7074,1.49394 5.2286,1.49394 3.5214,0 5.5846,-1.56508 1.9918,-1.56505 1.9918,-3.98379 0,-2.41874 -2.3831,-4.41063 -2.3832,-1.9919 -6.5092,-1.9919 h -3.2014 v -3.20126 h 3.059 q 3.9838,0 6.1535,-1.56505 2.1698,-1.56508 2.1698,-3.91266 0,-2.34759 -2.2409,-4.19722 -2.2409,-1.8496 -5.9402,-1.8496 -4.9086,0 -8.6434,4.05493 -3.7348,4.05493 -3.7348,12.23593 0,5.40657 2.1341,12.7339 l -2.9167,0.71139 q -1.9206,-8.10986 -1.9206,-13.80099 0,-9.8172 4.9797,-14.69024 4.9799,-4.87302 11.1334,-4.87302 6.1534,0 9.7104,2.84556 3.557,2.84558 3.557,6.47366 0,4.62404 -5.5488,6.82937 2.9167,0.99593 4.375,3.0234 1.4583,2.02748 1.4585,4.44621 z"
         style="line-height:1em;fill:#666699;stroke-width:1.94257247px"
         id="path123"
         inkscape:connector-curvature="0" />
      <path
         d="m 1373.9415,357.68469 q 0,10.91544 -5.8619,17.48494 -5.8622,6.56949 -13.8464,6.56949 -9.9047,0 -14.8572,-7.88338 -2.1223,3.94166 -6.0641,5.91251 -3.9417,1.97087 -7.9844,1.97087 -7.681,0 -13.6442,-6.82216 -5.9628,-6.82214 -5.9628,-17.03011 0,-7.47911 3.6384,-13.89698 3.6384,-6.41791 10.6123,-9.85425 l 3.6383,3.13313 q -4.4469,3.23421 -6.8724,8.94461 -2.4258,5.7104 -2.4258,11.97667 0,9.19728 3.7397,13.74542 3.7394,4.54807 8.4388,4.54807 4.6998,0 7.7823,-2.62781 3.0827,-2.6278 3.0827,-6.46843 v -32.44314 h 8.5908 v 28.50146 q 0,5.65988 2.729,8.74247 2.7286,3.08262 6.7715,3.08262 5.4576,0 9.7027,-5.05346 4.2449,-5.05343 4.2449,-13.94753 0,-6.16521 -2.931,-11.47131 -2.931,-5.30614 -8.5911,-8.035 l 2.83,-2.6278 q 6.4685,3.53742 9.8544,9.90476 3.3857,6.36735 3.3855,13.64434 z"
         style="line-height:1em;fill:#0099ff;stroke-width:2.75985885px"
         id="path125"
         inkscape:connector-curvature="0" />
      <path
         d="m 1360.6668,298.78746 q 0,7.70701 -4.0677,14.55766 -4.0675,6.85068 -11.5604,10.38303 l -3.6393,-3.42531 q 10.3829,-6.63659 10.3829,-22.0506 0,-8.02811 -3.907,-13.64781 -3.907,-5.61965 -10.8646,-5.61965 -4.1746,0 -7.0113,2.46194 -2.8366,2.46196 -2.8366,6.31546 v 34.89556 h -8.9915 v -30.29279 q 0,-5.67321 -3.2112,-8.88445 -3.2113,-3.21123 -7.7071,-3.21123 -6.7437,0 -10.9183,5.6732 -4.0675,5.78025 -4.0675,13.11259 0,7.33236 2.9971,13.16613 2.9972,5.83379 9.3126,8.72388 l -3.1042,2.78308 q -7.0647,-3.8535 -10.4901,-10.49006 -3.4253,-6.63659 -3.4253,-14.34359 0,-10.38305 5.9943,-17.98297 5.9944,-7.59996 15.9492,-7.59996 4.6029,0 8.9381,2.24786 4.3352,2.24787 5.8338,5.99433 4.8168,-8.24219 14.7718,-8.24219 9.9547,0 15.842,7.59996 5.7803,7.70696 5.7803,17.87593 z"
         style="line-height:1em;fill:#deffff;stroke-width:2.92294979px"
         id="path127"
         inkscape:connector-curvature="0" />
      <path
         d="m 1019.1704,544.46656 h -19.33611 v -0.43945 q 2.70991,-1.72119 2.70991,-4.57766 0,-1.61133 -1.0071,-2.69165 -1.0068,-1.08031 -2.76481,-1.08031 -1.7577,0 -3.0394,1.19018 -1.2818,1.19018 -1.2818,3.4424 0,2.25219 1.9409,3.60718 l -1.1352,0.91553 q -2.5634,-1.94091 -2.5634,-5.05372 0,-3.1128 1.9408,-4.77905 1.9409,-1.66624 4.6691,-1.66624 2.72821,0 4.57771,1.84933 1.8494,1.84938 1.8494,4.10159 0,2.2522 -1.4281,3.90014 h 11.7186 v -15.23439 h 3.1495 z"
         style="line-height:1em;fill:#772953"
         id="path131"
         inkscape:connector-curvature="0" />
      <path
         d="m 1140.4309,481.96199 -35.8562,0.0805 -9e-4,-0.35159 q 3.711,-2.36858 3.7019,-6.38617 -0.01,-2.51095 -1.5406,-3.91373 -1.5348,-1.40272 -3.7947,-1.39766 -2.2598,0.005 -4.0139,1.64113 -1.7539,1.63608 -1.747,4.72454 0.01,3.08845 2.6727,4.94062 l -1.554,1.25895 q -3.5214,-2.65365 -3.5309,-6.92242 -0.01,-4.2686 2.647,-6.53439 2.6565,-2.26588 6.2723,-2.27388 3.6157,-0.008 6.2573,2.22073 2.6417,2.22893 2.6506,6.19629 0.01,2.81229 -1.897,5.0262 l 8.8384,-0.0199 -0.026,-11.60054 q -0.01,-4.56997 3.0222,-7.18813 3.0324,-2.61821 7.2508,-2.62763 4.2183,-0.01 7.4137,2.89602 3.1954,2.90553 3.2072,8.17853 z m -1.6611,-1.75393 -0.018,-8.23595 q -0.011,-5.0219 -2.3274,-7.70339 -2.3161,-2.68153 -5.3543,-2.67469 -3.0381,0.007 -5.1675,2.19618 -2.1295,2.18928 -2.1213,5.85523 l 0.024,10.59615 z"
         style="line-height:1em;fill:#a0649a;stroke-width:1.37131643px"
         id="path133"
         inkscape:connector-curvature="0"
         inkscape:transform-center-x="254.6058"
         inkscape:transform-center-y="-198.97214" />
      <path
         d="m 1377.8053,486.0044 h -28.66 v -1.73909 q 3.1999,-1.94776 5.078,-6.1911 1.8784,-4.24337 1.8784,-9.04321 0,-4.79985 -2.3305,-8.10409 -2.3303,-3.30425 -6.9215,-3.30425 -2.7822,0 -4.8692,1.53038 -2.0867,1.53039 -2.0867,4.03466 v 22.8167 h -5.8434 v -21.35586 q 0,-2.8521 -2.5734,-4.76508 -2.5742,-1.913 -5.8433,-1.913 -5.8434,0 -9.0781,3.4086 -3.2347,3.4086 -3.9998,10.9214 l 0.2781,0.13905 q 3.0607,-5.0781 7.3738,-5.0781 3.5479,0 5.6343,3.02599 2.0869,3.02598 2.0869,6.9911 0,3.9651 -2.0172,6.71283 -2.0168,2.74776 -6.191,2.74776 -4.1739,0 -6.8173,-3.89555 -2.6433,-3.89553 -2.6433,-9.53016 0,-8.27799 4.7999,-13.8778 4.7997,-5.59985 12.3125,-5.59985 3.5479,0 6.191,1.39126 2.6436,1.39126 5.0781,4.31293 1.8087,-2.64341 4.5215,-4.10425 2.7129,-1.46082 5.4257,-1.46082 6.3305,0 9.7388,4.3477 3.4085,4.34771 3.4085,10.60837 0,4.24334 -1.565,8.03454 -1.5652,3.79118 -4.4867,6.2259 l 0.1387,0.27825 h 16.8339 v -28.93825 h 5.1479 z m -62.6063,-13.70394 q -1.3912,1.59994 -1.3912,4.41727 0,2.81729 1.426,4.38246 1.4262,1.56518 3.5131,1.56518 2.087,0 3.3391,-1.7043 1.2522,-1.70428 1.2522,-4.10422 0,-2.39993 -1.3217,-4.24336 -1.3217,-1.84343 -3.3392,-1.84343 -2.0173,0 -3.4783,1.5304 z"
         style="line-height:1em;fill:#f3bfad;stroke-width:1.89953685px"
         id="path135"
         inkscape:connector-curvature="0" />
      <path
         d="m 1471.6394,398.47549 8.0091,-0.39388 q 5.7771,0 9.5191,3.34807 3.742,3.34806 3.742,8.33732 0,4.98925 -5.7115,8.99378 -5.7115,4.00456 -16.0183,4.00456 -10.3068,0 -20.2852,-2.36333 l -1.1815,-6.30225 q 8.1399,2.49462 16.5432,2.49462 8.4029,0 11.8824,-2.03507 3.4793,-2.0351 3.4793,-4.39844 0,-2.36333 -1.8382,-4.07017 -1.9694,-1.57558 -4.5297,-1.90382 -2.5603,-0.32805 -6.368,-0.59082 -3.8074,-0.2628 -5.1206,-0.39391 -6.8275,-0.65645 -10.3067,-3.47936 -3.4791,-2.82285 -3.4791,-6.89303 0,-4.0702 3.676,-7.22129 3.6761,-3.15114 9.0596,-3.15114 l 13.2609,1.31297 q 2.2321,0 4.0702,-1.57555 1.7069,-1.57558 1.7069,-3.80758 0,-4.0702 -4.5953,-7.54956 -4.5955,-3.47935 -13.4582,-3.47935 -8.8624,0 -15.6895,7.35259 -6.8274,7.35261 -6.8274,23.10817 0,8.66555 4.0702,23.50203 l -5.6458,1.18167 q -3.4137,-16.93723 -3.4137,-25.60278 0,-18.38149 8.7968,-27.30964 8.9279,-8.92816 21.2699,-8.92816 12.3419,0 19.4976,5.90836 7.1557,5.90835 7.1557,12.99834 0,4.20146 -3.0855,7.15562 -3.0855,2.95418 -8.0748,2.95418 -1.9695,0 -5.9084,-0.98473 -3.939,-0.98472 -6.7619,-0.98472 -2.8227,0 -5.3176,1.64122 -2.4946,1.64118 -2.4946,3.87324 0,2.23203 2.5604,3.74194 2.5604,1.5099 7.8122,1.5099 z"
         style="line-height:1em;fill:#ad7f98;stroke-width:3.58526611px"
         id="path137"
         inkscape:connector-curvature="0" />
      <path
         d="m 1379.4594,258.06596 h -45.0482 v -16.23345 q 0,-15.92907 5.4281,-23.23413 5.428,-7.30506 16.3856,-7.30506 10.9578,0 17.0961,7.2036 6.1384,7.20358 6.1384,20.69765 z m -6.8992,-3.55107 v -16.6393 q 0,-8.82693 -2.6381,-15.21886 -3.1959,-7.2036 -13.0884,-7.00069 7.2038,4.97152 7.2038,12.47948 0,4.05836 -1.7249,7.96454 -1.7247,3.90617 -4.3628,6.84852 -5.8847,6.59483 -11.9723,11.56631 z m -16.0309,-28.00272 q 0,-3.75398 -1.8263,-6.29047 -1.9277,-2.435 -5.4788,-2.435 -10.4502,0 -10.4502,22.92976 v 13.79843 q 17.7553,-12.68238 17.7553,-28.00272 z"
         style="line-height:1em;fill:#ff3300;stroke-width:2.77050877px"
         id="path139"
         inkscape:connector-curvature="0" />
      <path
         d="m 1427.5266,406.10574 q 0,11.09936 -7.1575,19.19052 -7.1573,8.09111 -19.19,8.09111 -5.9127,0 -8.7135,-1.3485 -4.8753,1.3485 -10.3732,1.3485 -14.6262,0 -22.3543,-8.50607 -7.7281,-8.50606 -7.7281,-19.50171 0,-8.50608 4.4605,-14.57445 4.4605,-6.06834 12.1367,-6.06834 7.6762,0 12.4479,9.12849 6.9501,-9.12849 15.7673,-9.12849 6.8464,0 11.3587,5.80902 4.5121,5.80902 4.5121,12.65536 0,16.80468 -14.8335,24.89584 1.8673,0.62239 3.6306,0.62239 9.6473,0 15.2483,-6.63889 5.4977,-6.74262 5.4977,-15.9748 0,-11.72182 -7.9871,-18.67188 l 3.9417,-2.69705 q 9.3357,8.29861 9.3357,21.36895 z m -34.4386,20.12411 q 5.2904,-2.59332 8.0911,-7.98743 2.8008,-5.39407 2.8008,-11.56618 0,-6.17207 -2.5933,-11.09939 -2.5932,-4.92729 -7.9874,-4.92729 -5.394,0 -8.4541,4.77168 -3.0601,4.7717 -3.0601,10.68449 0,5.91275 2.9564,11.56617 2.9563,5.65342 8.2466,8.55795 z m -5.7052,1.86718 q -5.2904,-2.9045 -8.921,-9.64711 -3.5269,-6.74266 -3.5269,-12.39609 0,-5.65339 -2.1784,-10.21764 -2.2821,-4.56422 -6.587,-4.56422 -4.3049,0 -6.8464,4.30488 -2.5414,4.30492 -2.5414,10.21767 0,9.12848 6.1202,16.02668 6.1202,6.89823 18.257,6.89823 4.1494,0 6.2239,-0.6224 z"
         style="line-height:1em;fill:#0066cc;stroke-width:2.8325913px"
         id="path141"
         inkscape:connector-curvature="0" />
      <path
         d="m 1041.7408,496.92918 q 0.029,5.17252 -2.0904,7.89616 -2.1191,2.72364 -5.0318,2.73993 -2.9127,0.0162 -5.0092,-2.20697 -2.0965,-2.22307 -2.1169,-5.88901 -0.037,-6.679 5.6611,-11.48116 -1.7654,-1.39632 -3.8244,-1.38477 -3.8668,0.0215 -6.1336,3.29838 -2.2667,3.2765 -2.2418,7.74584 0.032,5.67471 4.5195,8.96415 l -1.1489,1.11133 q -5.846,-3.68377 -5.8888,-11.36715 -0.028,-5.07154 2.9641,-8.80444 3.0429,-3.68299 8.115,-3.7113 5.072,-0.0282 8.6319,3.44218 3.5598,3.47051 3.5942,9.64683 z m -12.2446,1.62505 q 0.014,2.46066 1.4042,4.16042 1.3905,1.69965 3.0477,1.69047 1.6573,-0.009 2.7524,-1.74791 1.0952,-1.73873 1.0782,-4.77688 -0.017,-3.03816 -0.8334,-5.36887 -0.8165,-2.33024 -2.2787,-3.37667 -5.1986,4.34742 -5.1704,9.41944 z"
         style="line-height:1em;fill:#f3bfad;stroke-width:1.37131643px"
         id="path143"
         inkscape:connector-curvature="0" />
      <path
         d="m 1229.8896,335.15379 q 0.4455,5.73736 -2.296,11.06791 -2.7415,5.33059 -8.1659,7.8295 l -2.4616,-2.96434 q 3.6824,-2.1328 5.3128,-5.91491 1.6304,-3.78213 1.3158,-7.83659 -0.4869,-6.27293 -4.2731,-9.44228 -3.8626,-3.16344 -8.7967,-2.78051 -4.9342,0.38293 -8.2948,4.18389 -3.3606,3.80096 -2.8738,10.07389 0.3562,4.58995 2.8333,8.24571 2.4771,3.65574 6.9037,5.15922 l -1.2169,2.17241 q -5.3212,-2.12673 -8.514,-6.57351 -3.1219,-4.52921 -3.5434,-9.96065 -0.6649,-8.56793 4.2275,-13.94998 4.9691,-5.38804 11.8922,-5.92532 6.923,-0.53728 12.1048,3.75514 5.1811,4.29252 5.8461,12.86042 z"
         style="line-height:1em;fill:#ffcc66;stroke-width:2.09521794px"
         id="path145"
         inkscape:connector-curvature="0" />
      <path
         d="m 1048.0972,535.53092 -23.799,0.47209 -0.1547,-7.7989 q -0.086,-4.32024 2.138,-6.70876 2.2602,-2.38887 5.4456,-2.45205 3.1853,-0.0632 5.5941,2.26985 2.4088,2.33302 2.4931,6.58019 l 0.035,1.7575 -12.522,0.24834 0.094,4.75973 17.5381,-0.34777 -0.3021,-15.23128 3.1122,-0.0617 z m -9.7007,-7.09652 -0.028,-1.4281 q -0.061,-3.0755 -1.704,-4.65456 -1.643,-1.57896 -3.913,-1.53397 -2.2701,0.045 -3.9059,1.59744 -1.6357,1.55246 -1.5835,4.18867 l 0.041,2.05036 z"
         style="line-height:1em;fill:#e77f5b"
         id="path147"
         inkscape:connector-curvature="0" />
      <path
         d="m 1345.4423,444.29577 -32.607,0.47789 q -4.0757,0.0597 -6.7835,-2.15129 -2.7078,-2.21098 -2.7653,-6.15968 -0.058,-3.9485 2.6202,-6.6631 2.6781,-2.71463 6.669,-2.77309 l 15.4543,-0.22653 q 3.4815,-0.051 6.4261,-1.96269 2.9447,-1.91167 2.8998,-4.96854 -0.045,-3.05691 -2.6134,-4.46311 -2.6522,-1.32004 -5.8789,-1.27277 l -0.067,-4.58536 q 3.3116,-0.0485 5.7873,-2.08071 2.4757,-2.03217 2.4285,-5.25891 -0.064,-4.33059 -4.0831,-6.22512 -4.0196,-1.89454 -9.4966,-1.81425 -5.4769,0.0803 -10.5275,3.16936 -5.0507,3.08913 -6.4121,8.7146 l 0.5132,0.2473 q 2.9848,-4.96983 7.6975,-5.03893 4.7127,-0.069 7.436,3.2034 2.7234,3.27243 2.7918,7.94271 0.069,4.67026 -2.8132,7.98238 -2.8816,3.31212 -7.8066,3.38431 -4.925,0.0722 -8.129,-4.12748 -3.204,-4.19967 -3.2825,-9.54922 -0.1369,-9.34055 6.24,-14.65728 6.377,-5.31681 15.9722,-5.45746 2.8871,-0.0423 6.1681,0.71648 3.281,0.75875 6.3179,2.24302 3.0367,1.4843 5.0271,4.00306 1.9904,2.51882 2.0364,5.66063 0.078,5.34956 -6.2366,9.09419 6.4047,2.36916 6.4893,8.14328 0.068,4.67029 -3.7947,7.65706 -3.8631,2.98677 -8.7032,3.05772 l -19.7849,0.28998 q -1.953,0.0286 -3.4665,1.06999 -1.5135,1.04138 -1.4862,2.90947 0.028,1.86809 1.5689,2.7373 1.5416,0.86916 3.4946,0.84054 l 32.6069,-0.47789 z m -27.5326,-27.072 q 1.2832,-2.26952 1.2434,-4.98676 -0.04,-2.71724 -1.5163,-4.94631 -1.4765,-2.22908 -3.9391,-2.19296 -2.4625,0.0361 -3.7462,2.26312 -1.2839,2.22706 -1.2447,4.90186 0.039,2.67477 1.3896,4.99062 1.3504,2.31585 3.9403,2.27789 2.5899,-0.038 3.873,-2.30746 z"
         style="line-height:1em;fill:#9999cc;stroke-width:2.31896353px"
         id="path149"
         inkscape:connector-curvature="0" />
      <path
         d="m 1200.6794,358.5462 q 5.9057,-0.24846 10.3489,3.92893 4.443,4.17747 4.6834,9.88952 0.2403,5.71197 -3.3461,10.37274 -3.5863,4.6607 -11.2419,7.11645 1.0822,2.67005 1.1637,4.60641 0.1751,4.16304 -2.8129,6.9073 -3.0891,2.65163 -8.2202,2.86739 -9.6814,0.40723 -13.7464,-6.30772 l 2.4072,-2.71978 q 0.7918,2.68216 3.2672,3.88729 2.4751,1.20557 5.4282,1.08096 2.9527,-0.12401 4.5293,-1.83906 1.4757,-1.80787 1.3881,-3.88939 -0.088,-2.08152 -0.7377,-3.70292 -9.391,0.39504 -15.5288,-4.87493 -6.041,-5.27404 -6.373,-13.16438 -0.332,-7.89044 6.9028,-13.43205 l 3.7247,3.23779 q -3.2093,4.40242 -2.9547,10.45335 0.2545,6.05093 3.782,10.36383 3.5275,4.31299 9.53,4.06047 -4.6214,-6.10969 -4.933,-13.51601 -0.3116,-7.40633 3.2125,-11.23996 3.621,-3.83778 9.5267,-4.08623 z m -0.9405,28.35938 q 6.0463,-1.5152 8.8887,-5.41725 2.8424,-3.90205 2.6632,-8.16186 -0.1792,-4.2598 -2.5241,-6.97378 -2.4376,-2.61297 -5.8745,-2.46838 -3.4369,0.14459 -5.6566,2.71109 -2.2196,2.56641 -2.0282,7.1167 0.3177,7.55156 4.5315,13.19348 z"
         style="line-height:1em;fill:#bb94a9;stroke-width:2.64602304px"
         id="path151"
         inkscape:connector-curvature="0" />
      <path
         d="m 1212.3463,221.6471 -30.4341,0.15569 -0.01,-1.5104 q 8.2011,-6.00811 8.1617,-13.71103 -0.032,-6.19258 -3.5994,-9.72392 -3.6431,-3.53083 -8.8539,-3.50416 -5.2108,0.0267 -8.3624,3.9699 -3.1514,3.94345 -3.1271,8.77636 0.025,4.83318 2.0447,8.48561 2.02,3.65243 5.8058,5.5212 l -1.2711,2.49864 q -4.9227,-2.69359 -7.3633,-7.36339 -2.5161,-4.66942 -2.5431,-9.95576 -0.038,-7.40089 4.4658,-12.78583 4.5796,-5.30989 11.905,-5.34734 7.3252,-0.0375 12.2949,4.46831 4.9698,4.50588 5.0108,12.51092 0.041,8.00502 -6.3426,14.98555 l 15.7835,-0.0806 -0.1608,-31.41581 6.4191,-0.0329 z"
         style="line-height:1em;fill:#77216f;stroke-width:2.06219244px"
         id="path153"
         inkscape:connector-curvature="0"
         inkscape:transform-center-x="30.920513"
         inkscape:transform-center-y="0.68640454" />
      <path
         d="m 1080.5314,503.66098 q 0,4.31946 -2.0816,7.38993 -2.0818,3.07045 -5.3343,3.07045 -3.2527,0 -5.4123,-2.31586 -2.1597,-2.31584 -2.1597,-6.11488 0,-7.12972 6.4011,-12.17777 -2.1858,-1.82146 -4.6577,-1.82146 -2.472,0 -4.3715,2.57607 -1.8996,2.57606 -1.8996,6.32307 v 3.90312 q 0,4.47558 -2.55,7.05165 -2.55,2.57606 -6.271,2.57606 -3.721,0 -6.5833,-3.09647 -2.8623,-3.09649 -2.8623,-8.717 0,-4.05924 1.9516,-7.46797 1.9515,-3.40873 5.6465,-5.12611 l 1.197,1.35309 q -3.2266,1.35308 -4.8399,4.29344 -1.6133,2.94035 -1.6133,6.73939 0,3.79905 2.1597,6.34908 2.1598,2.55006 4.5797,2.55006 2.4199,0 3.8771,-1.87351 1.4051,-1.8735 1.4051,-5.56846 v -3.59087 q 0,-4.94397 2.9664,-7.65014 2.9664,-2.70616 7.6761,-2.70616 4.7098,0 8.7691,3.747 4.0072,3.79905 4.0071,10.30425 z m -12.9584,1.09288 q 0,2.55004 1.4312,4.31946 1.4312,1.76941 3.3827,1.76941 1.9516,0 2.9664,-1.84747 1.0147,-1.84748 1.0147,-4.65773 0,-2.81025 -0.8586,-5.54245 -0.8586,-2.73219 -2.2118,-4.03322 -5.7246,4.57966 -5.7246,9.992 z"
         style="line-height:1em;fill:#cecac5;stroke-width:1.42108512px"
         id="path155"
         inkscape:connector-curvature="0" />
      <path
         d="m 1252.0533,178.61985 h -51.8814 v -0.54043 q 5.7133,-3.62858 5.7133,-9.80489 0,-3.8602 -2.3549,-6.02191 -2.3549,-2.16171 -5.8288,-2.16171 -3.4744,0 -6.1765,2.50913 -2.702,2.50912 -2.702,7.25717 0,4.74804 4.0917,7.60458 l -2.3933,1.93009 q -5.4041,-4.09179 -5.4041,-10.65415 0,-6.56232 4.0916,-10.03652 4.0918,-3.47418 9.6505,-3.47418 5.5588,0 9.6122,3.43557 4.0533,3.43558 4.0533,9.53468 0,4.32344 -2.9339,7.7204 h 15.2093 v -11.34897 q -5.0182,0 -8.8015,-3.47418 -3.7828,-3.47418 -3.7828,-7.9134 0,-4.43922 3.011,-7.21857 3.0109,-2.77935 6.4852,-2.77935 3.4741,0 5.4042,1.11947 1.9301,1.11944 2.8178,3.16536 1.5055,3.47418 1.5055,8.83986 0,1.00364 -0.077,2.77934 -0.077,1.77568 -0.077,2.54772 5.3272,-1.54407 11.1947,-7.02556 5.7902,-5.48148 7.4888,-10.80856 h 2.0845 z m -6.2535,-2.70213 v -21.92593 q -2.7794,3.39697 -6.794,6.33072 -4.0146,2.93375 -7.7205,3.78301 v 11.81219 z m -20.9995,-14.05113 v -9.41888 q 0,-4.86385 -4.3233,-4.86385 -2.0075,0 -3.0884,1.77569 -1.0808,1.77569 -1.0808,3.93739 0,3.47418 2.4706,5.86752 2.4706,2.39331 6.0219,2.70213 z"
         style="line-height:1em;fill:#333366;stroke-width:2.10818243px"
         id="path157"
         inkscape:connector-curvature="0" />
      <path
         d="m 1081.9634,464.1287 q 3.808,1.82578 5.6339,5.34695 1.8258,3.52116 1.8258,8.00739 0,4.48622 -2.3996,7.82481 -2.4518,3.28642 -6.8858,3.28642 -3.5994,0 -6.312,-2.53002 -2.7126,-2.53003 -2.7126,-6.75543 v -3.96457 q 0,-4.43405 -1.7737,-6.54676 -1.7736,-2.11268 -4.0166,-2.11268 -2.243,0 -3.8602,1.27805 -1.6172,1.27804 -1.6172,3.10383 v 17.00593 h -4.4862 v -14.76281 q 0,-2.8691 -1.3562,-4.43406 -1.4084,-1.56497 -3.7819,-1.56497 -2.3735,0 -4.5905,2.45177 -2.2171,2.45179 -2.2171,6.28594 0,3.83416 1.4607,6.80758 1.5128,2.92126 4.6948,4.38189 l -1.4607,1.35631 q -6.99,-3.75591 -6.99,-13.04135 0,-5.16437 2.9994,-8.34647 2.9995,-3.18209 7.3552,-3.18209 4.3558,0 7.3291,3.96458 2.6084,-3.86024 7.1467,-3.86024 3.5472,0 6.2598,2.53002 2.7126,2.53002 2.7126,6.54676 v 4.59055 q 0,3.54725 1.6954,5.55562 1.6955,2.00836 3.9908,2.00836 2.9734,0 4.6948,-2.60826 1.6693,-2.66044 1.6693,-6.28594 0,-3.62549 -1.6171,-6.65109 -1.6171,-3.02559 -4.8514,-4.43406 z"
         style="line-height:1em;fill:#96808f;stroke-width:1.42446303px"
         id="path159"
         inkscape:connector-curvature="0" />
      <path
         d="m 1138.9103,498.78981 q 0,4.49147 -2.3344,8.3033 -2.3343,3.81184 -6.8258,5.40749 l -1.7139,-2.42302 q 2.8368,-1.41836 4.3438,-4.10733 1.507,-2.68897 1.507,-5.82118 0,-4.90516 -2.8958,-7.65323 -2.8959,-2.74806 -6.885,-2.74806 -3.9891,0 -6.9144,2.68897 -2.9254,2.68897 -2.9254,6.97359 0,4.28463 2.1275,7.38729 2.1276,3.10265 5.9099,4.10732 v 1.00467 h -27.1264 v -1.00467 q 2.0684,-0.70918 3.2504,-2.57076 1.1822,-1.86161 1.1822,-4.40284 0,-2.54121 -1.7732,-4.13686 -1.8321,-1.53657 -4.3733,-1.53657 -2.5412,0 -4.4914,1.74339 -1.9502,1.74341 -1.9502,4.69832 0,4.25508 3.1913,6.32352 l -1.832,1.47744 q -1.8912,-1.41835 -3.014,-3.72318 -1.1229,-2.30483 -1.1229,-4.78693 0,-4.49148 3.014,-6.97361 3.014,-2.48212 7.1508,-2.48212 4.1369,0 7.2101,2.48212 3.0733,2.48213 3.0733,6.3235 0,3.8414 -2.3051,6.50081 h 13.8883 q -4.6688,-4.31417 -4.6688,-10.81498 0,-6.50081 4.1665,-10.31264 4.1664,-3.81183 9.692,-3.81183 5.5258,0 9.4854,3.63455 3.9595,3.63454 3.9595,10.25353 z"
         style="line-height:1em;fill:#eb9172;stroke-width:1.61377621px"
         id="path161"
         inkscape:connector-curvature="0" />
      <path
         d="m 1183.2478,342.97055 q 0,6.38535 -2.7231,9.67191 -2.7231,3.28658 -6.2288,3.28658 -3.5057,0 -6.0098,-2.50405 -2.5038,-2.50407 -2.5038,-6.63576 0,-8.32598 7.3241,-15.27475 -1.3772,-1.62763 -4.789,-1.62763 -3.4116,0 -5.2897,1.15813 -1.8781,1.15814 -1.8781,3.72478 v 20.65846 h -5.3212 v -17.71619 q 0,-3.63088 -2.2534,-5.57152 -2.253,-1.94066 -4.9136,-1.94066 -2.6605,0 -4.3508,1.22073 -1.6902,1.22072 -1.6902,3.34918 v 20.65846 h -5.321 v -19.21863 q 0,-2.50408 -2.504,-4.2569 -2.5666,-1.75284 -5.6341,-1.75284 -5.2584,0 -8.2005,3.03617 -2.9423,3.03617 -3.6309,9.85974 l 0.2504,0.12508 q 2.7545,-4.50731 6.5104,-4.50731 3.7561,0 5.7592,2.72318 2.0034,2.72316 2.0034,6.26014 0,3.53698 -1.9095,6.00973 -1.9091,2.47277 -5.8531,2.47277 -3.9438,0 -6.3853,-3.5057 -2.3789,-3.50566 -2.3789,-8.639 0,-8.32598 4.5387,-12.89588 4.5386,-4.56991 11.8002,-4.56991 3.0048,0 5.2584,1.22073 2.2536,1.22073 4.5073,3.84999 3.3804,-4.94552 9.2963,-4.94552 5.9148,0 9.17,4.75771 3.6938,-4.88291 9.5781,-4.88291 3.1301,0 6.0724,1.62765 0.8765,-1.43985 0.8765,-2.62927 0,-2.44145 -1.5964,-3.7874 -1.5964,-1.34592 -3.9127,-1.34592 -3.3804,0 -5.2582,2.50405 l -1.5651,-1.0016 q 0.8138,-2.31626 3.3177,-3.75611 2.5041,-1.43982 5.3525,-1.43982 2.8483,0 4.9141,1.75285 2.0659,1.75283 2.0659,5.13331 0,1.12683 -0.4069,2.22236 -0.407,1.0955 -0.7512,1.59632 -0.3444,0.50081 -1.2833,1.94065 2.7544,2.12844 4.3508,5.97843 1.5962,3.85 1.5962,7.60607 z m -4.8828,0.25041 q 0,-6.57317 -3.5683,-10.39184 -2.7545,2.12844 -4.6639,5.75933 -1.9093,3.63087 -1.9093,6.76098 0,3.13006 1.5025,4.97679 1.5024,1.84676 3.5682,1.84676 2.0659,0 3.5683,-2.25365 1.5025,-2.25369 1.5025,-6.69837 z m -50.7685,3.97519 q 0,-2.15976 -1.1895,-3.78739 -1.1894,-1.62763 -3.3493,-1.62763 -2.1596,0 -3.3802,1.56503 -1.2209,1.56503 -1.2209,3.72479 0,2.15974 1.252,3.75608 1.2522,1.59633 3.4431,1.59633 2.1912,0 3.3179,-1.53373 1.1269,-1.53374 1.1269,-3.69348 z"
         style="line-height:1em;fill:#666699;stroke-width:1.7094363px"
         id="path163"
         inkscape:connector-curvature="0" />
      <path
         d="m 1189.2753,240.20049 q 3.3113,2.52544 5.2873,7.11856 1.9762,4.5933 2.0085,9.72311 0.032,5.12959 -2.9321,10.09113 -2.9643,4.9615 -8.3562,4.99535 -4.1189,0.026 -6.911,-3.32653 -2.7176,-3.42784 -2.7444,-7.69611 -0.062,-9.81033 8.7214,-18.32812 -1.8096,-1.9358 -7.2015,-1.90176 -2.9954,0.019 -5.0828,1.52987 -2.0875,1.51086 -2.0695,4.35663 l 0.1557,24.71265 -6.3655,0.04 -0.1336,-21.19305 q -0.019,-3.07012 -1.6088,-5.75623 -1.5898,-2.68587 -4.5103,-2.66733 -4.9427,0.031 -8.0992,4.20721 -3.1566,4.17642 -3.124,9.34345 0.054,8.53713 9.0809,14.92068 l -2.0845,1.96032 q -4.4407,-3.49192 -7.3902,-8.07886 -2.9496,-4.58712 -2.9803,-9.45497 -0.043,-6.81446 4.042,-12.19475 4.0851,-5.38072 10.7502,-5.42267 7.8633,-0.0493 10.8197,5.62347 3.6336,-5.71445 10.2238,-5.75592 4.9426,-0.0312 8.4737,1.74396 1.0371,-1.80398 1.0236,-3.93832 -0.014,-2.13453 -1.9332,-3.69516 -1.9194,-1.56047 -4.5404,-1.54403 -3.8942,0.0245 -6.4221,2.96136 l -1.9546,-1.186 q 1.5546,-2.85574 4.39,-4.52106 2.9104,-1.666 6.5424,-1.68886 3.632,-0.0229 5.7042,1.98611 2.0722,2.00898 2.0939,5.45393 0.022,3.44495 -2.8731,7.5819 z m 1.4524,16.54157 q -0.05,-7.93815 -4.4218,-12.40378 -3.2037,2.64108 -5.4982,6.96174 -2.2942,4.32082 -2.2727,7.72815 0.021,3.40713 1.4601,5.90685 1.4387,2.49993 4.5089,2.48045 3.0705,-0.0193 4.622,-3.39922 1.6262,-3.38036 1.6017,-7.27419 z"
         style="line-height:1em;fill:#ff9933;stroke-width:2.04497766px"
         id="path165"
         inkscape:connector-curvature="0" />
      <path
         d="m 1604.5732,336.00944 q 0,9.82788 -4.1577,15.07256 -4.1577,5.24468 -9.5914,5.24468 -5.4336,0 -9.2136,-4.15795 -3.7799,-4.15793 -3.7799,-11.15084 0,-12.56837 10.8673,-21.54572 -2.079,-1.51199 -6.615,-1.51199 -7.7489,0 -12.5682,5.85891 -4.8195,5.8589 -4.8195,13.70234 0,11.15084 9.1664,16.82079 l -2.1735,2.17348 q -5.6699,-3.49647 -8.4577,-8.93016 -2.7876,-5.43367 -2.7876,-11.5761 0,-9.54438 6.095,-16.77354 6.0952,-7.22916 15.9232,-7.22916 5.7644,0 10.3005,2.74046 2.0788,-2.36247 2.0788,-4.44143 0,-3.68545 -2.4569,-5.76444 -2.5515,-1.98448 -6.048,-1.98448 -4.9139,0 -7.749,3.77996 l -2.4569,-1.51196 q 1.512,-3.96897 5.1029,-5.90619 3.5911,-1.93722 8.0325,-1.93722 4.4415,0 7.4653,2.59872 3.0239,2.59872 3.0239,7.0874 0,4.48869 -4.0633,9.78063 8.8824,8.12689 8.8824,19.56125 z m -22.9627,3.30746 q 0,5.00843 2.268,7.98515 2.268,2.97671 5.481,2.97671 3.2129,0 5.5754,-3.35471 2.3622,-3.35469 2.3622,-8.59941 0,-5.24469 -1.5118,-9.87512 -1.6064,-4.63043 -4.3468,-6.80391 -9.828,8.03238 -9.828,17.67129 z"
         style="line-height:1em;fill:#ff9933;stroke-width:2.58044767px"
         id="path167"
         inkscape:connector-curvature="0" />
      <path
         d="m 1561.3274,120.60063 q 5.5408,4.43951 8.6889,11.53573 3.1479,7.09613 3.2016,14.95963 0.053,7.86334 -4.0421,13.34428 -4.0952,5.48109 -11.2125,5.5296 -7.1173,0.0486 -11.6823,-4.39758 -4.5651,-4.44621 -4.6159,-11.9079 -0.097,-14.23459 12.3327,-26.48817 -6.0127,-6.27318 -19.3288,-6.1823 -5.9694,0.0407 -10.5454,2.36792 12.5854,10.59064 12.6817,24.71048 0.059,8.60959 -4.601,15.5294 -4.7752,6.80575 -12.7536,6.86007 -7.9782,0.0543 -12.5023,-6.80277 -4.524,-6.85723 -4.5741,-14.26134 -0.051,-7.4045 3.2336,-13.97045 3.399,-6.56694 8.8808,-10.85163 -2.8797,-1.35822 -8.1602,-1.3222 -9.5277,0.0651 -14.7621,6.87406 -5.2343,6.80892 -5.1695,16.33685 0.047,6.88762 2.8999,12.83774 2.8533,5.95026 8.2724,9.35744 l -3.89,1.97801 q -6.1132,-4.20605 -9.3755,-11.24393 -3.2621,-7.03785 -3.3138,-14.61436 -0.078,-11.47917 6.5235,-19.79011 6.7173,-8.19665 18.7706,-8.27896 7.3469,-0.05 13.5708,3.5811 6.5186,-3.7179 17.3091,-3.79158 13.8903,-0.0947 21.2772,5.70985 3.5305,-4.15687 3.5035,-8.11731 -0.027,-3.96042 -3.143,-6.35003 -3.116,-2.38962 -7.4782,-2.35989 -6.1989,0.0423 -9.727,4.54357 L 1538.6,104.2242 q 1.9178,-4.949544 6.4935,-7.334124 4.5758,-2.38461 10.086,-2.42219 5.5102,-0.0375 9.1479,3.09475 3.6375,3.132204 3.6813,9.560704 0.016,2.41075 -1.0573,4.88626 -1.0744,2.47514 -2.4956,4.37949 -1.4221,1.90387 -3.1284,4.21149 z m -15.2017,26.62255 q 0.037,5.39534 2.8137,8.59085 2.7772,3.19557 6.9098,3.16739 4.1327,-0.0281 6.289,-3.65911 2.1565,-3.63088 2.1183,-9.25582 -0.038,-5.62498 -2.2595,-11.46472 -2.2211,-5.8397 -5.6837,-8.57127 -4.2217,3.81712 -7.223,9.80722 -3.0018,5.98989 -2.9646,11.38546 z m -17.931,-3.20706 q -0.091,-13.3162 -9.6717,-21.05723 -5.1427,3.47888 -8.4886,9.41406 -3.3461,5.93505 -3.3053,11.96164 0.041,6.02694 2.7695,10.48545 2.7282,4.4586 7.894,4.42339 5.1657,-0.0351 8.0036,-4.76134 2.8377,-4.72622 2.7985,-10.46597 z"
         style="line-height:1em;fill:#772953;stroke-width:3.13474417px"
         id="path169"
         inkscape:connector-curvature="0" />
      <path
         d="m 1621.6455,443.52827 q -0.094,12.58103 -5.2,19.01869 -5.1057,6.43761 -12.198,6.3844 -7.0923,-0.0532 -12.2927,-5.64296 -5.2005,-5.58979 -5.134,-14.47058 0.1267,-16.89813 15.3878,-28.74874 -4.6594,-3.73548 -10.3332,-3.77799 -5.6737,-0.0425 -8.8959,1.96862 -3.2222,2.0111 -4.6091,6.00962 -1.3869,3.99845 -1.7818,7.326 -0.395,3.3275 -0.4349,8.63122 l -0.056,7.524 q -0.07,9.37413 -6.466,15.12365 -6.3958,5.74952 -14.9063,5.68578 -10.4843,-0.0786 -16.3459,-8.0172 -5.7373,-8.06104 -5.6583,-18.60697 0.079,-10.54595 4.7053,-18.8374 4.6262,-8.29151 13.6617,-12.41766 l 2.8129,3.22823 q -7.7947,3.14867 -11.6095,10.15103 -3.8147,7.00239 -3.8793,15.63654 -0.065,8.63412 4.0199,15.01749 4.0846,6.38332 10.3752,6.4305 6.2905,0.0472 10.1502,-4.73461 3.8597,-4.78174 3.9273,-13.78585 l 0.054,-7.1539 q 0.085,-11.34775 5.7471,-17.9662 5.6621,-6.61844 16.2081,-6.53932 10.5458,0.079 17.544,4.44879 2.4919,-3.3118 2.5201,-7.07379 0.028,-3.76201 -3.0341,-6.622 -3.0624,-2.8601 -7.5026,-2.89332 -6.4139,-0.0481 -10.6437,4.73086 l -2.9454,-1.99569 q 2.3795,-4.79289 7.0865,-7.40962 4.707,-2.61668 10.6891,-2.57185 5.9822,0.0448 9.4089,3.64768 3.4269,3.6029 3.3797,9.89345 -0.023,3.08358 -0.7757,4.74316 -0.7525,1.6596 -1.4402,2.88792 -0.6874,1.22855 -1.436,2.33291 -0.7487,1.10435 -1.4974,2.33267 5.648,3.49623 8.5542,10.73406 2.9061,7.23781 2.8451,15.37857 z m -29.9977,3.10541 q -0.045,6.04392 3.3153,10.26304 3.3605,4.21911 7.4926,4.25011 4.132,0.031 6.8157,-4.20449 2.6841,-4.23529 2.7398,-11.6978 0.056,-7.46227 -1.7506,-13.27334 -1.8067,-5.81103 -4.8673,-8.91777 -13.6492,10.75248 -13.7455,23.58025 z"
         style="line-height:1em;fill:#eb9172;stroke-width:3.36820841px"
         id="path171"
         inkscape:connector-curvature="0" />
      <path
         d="m 1480.5735,160.81247 q 0,9.73348 -4.8667,18.15163 -4.8669,8.41815 -14.4689,12.62722 l -5.7873,-2.76218 q 6.9715,-4.20907 10.5225,-11.7065 3.42,-7.49737 3.42,-15.78402 0,-12.23266 -5.4586,-18.48047 -5.4588,-6.24786 -12.5613,-6.24786 -5.1297,0 -8.6153,3.02525 -3.4861,3.02532 -3.4861,7.76052 v 42.87996 h -11.1794 v -37.22405 q 0,-6.57668 -4.3411,-11.11462 -4.3403,-4.53788 -9.9964,-4.53788 -5.6564,0 -9.5364,2.49914 -3.8803,2.49911 -3.8803,6.97127 v 43.40614 h -11.1807 v -40.38083 q 0,-5.26141 -5.2611,-8.94429 -5.3932,-3.68298 -11.838,-3.68298 -11.0489,0 -17.2308,6.37939 -6.1821,6.37941 -7.6288,20.71659 l 0.526,0.26291 q 5.7872,-9.47044 14.3372,-9.47044 6.3135,0 10.9826,5.39287 4.6697,5.39293 4.6697,13.54799 0,8.1551 -4.8667,12.95608 -4.8666,4.80095 -11.4432,4.80095 -8.5499,0 -13.548,-7.36594 -4.9984,-7.36585 -4.9984,-17.88856 0,-17.62554 9.5359,-27.29323 9.5363,-9.66769 24.3996,-9.66769 14.8634,0 21.0458,10.65424 6.4447,-10.39119 18.2829,-10.39119 14.2059,0 20.5194,9.73346 5.6556,-9.99651 16.4413,-9.99651 10.7856,0 19.1381,8.61545 8.3524,8.61545 8.3524,22.55801 z m -121.7344,23.14992 q 3.8806,0 6.906,-2.89371 3.0249,-2.89379 3.0249,-8.08933 0,-5.19556 -2.8936,-8.28665 -2.8939,-3.09109 -6.7085,-3.09109 -3.8141,0 -6.708,2.89378 -2.8937,2.89372 -2.8937,8.28665 0,5.39285 2.6964,8.28664 2.6963,2.89371 6.5765,2.89371 z"
         style="line-height:1em;fill:#996600;stroke-width:3.59174728px"
         id="path117"
         inkscape:connector-curvature="0" />
    </g>
  </g>
</svg>
