<?xml version="1.0" encoding="iso-8859-1"?>
<!-- Generator: Adobe Illustrator 18.1.1, SVG Export Plug-In . SVG Version: 6.00 Build 0)  -->
<svg version="1.1" id="Capa_1" xmlns="http://www.w3.org/2000/svg" xmlns:xlink="http://www.w3.org/1999/xlink" x="0px" y="0px"
	 viewBox="0 0 569.774 569.774" style="enable-background:new 0 0 569.774 569.774;" xml:space="preserve">
<g>
	<g>
		<path style="fill:#010002;" d="M344.832,529.992c2.448,0,4.59,0.918,6.426,2.754s2.754,3.979,2.754,6.426v20.81
			c0,2.854-0.918,5.202-2.754,7.038s-3.978,2.754-6.426,2.754H225.491c-6.528,0-9.792-3.267-9.792-9.792v-20.811
			c0-2.445,0.918-4.59,2.754-6.426s4.182-2.754,7.038-2.754L344.832,529.992L344.832,529.992z M344.832,470.628
			c2.448,0,4.59,0.918,6.426,2.754s2.754,4.185,2.754,7.038v20.811c0,2.445-0.918,4.59-2.754,6.426s-3.978,2.754-6.426,2.754
			H225.491c-2.856,0-5.202-0.918-7.038-2.754s-2.754-3.979-2.754-6.426V480.42c0-6.525,3.264-9.792,9.792-9.792H344.832
			L344.832,470.628z M467.844,280.908c-5.712-0.816-10.605,0.102-14.688,2.754c-4.08,2.652-6.528,6.223-7.347,10.71
			c-0.813,4.488,0.309,8.772,3.366,12.854c3.063,4.079,7.446,6.525,13.158,7.344l50.796,7.956
			c5.712,0.813,10.608-0.104,14.688-2.754c4.078-2.652,6.526-6.428,7.345-11.322c0.813-4.488-0.408-8.67-3.672-12.546
			c-3.267-3.876-7.548-6.223-12.854-7.038L467.844,280.908L467.844,280.908z M462.336,165.24c-4.896,2.04-8.466,5.304-10.71,9.792
			s-2.346,8.976-0.306,13.464c2.04,4.488,5.403,7.446,10.098,8.874c4.692,1.428,9.486,1.122,14.382-0.918l47.124-21.42
			c5.304-2.04,8.976-5.304,11.016-9.792s2.04-8.976,0-13.464c-2.04-4.488-5.403-7.446-10.098-8.874
			c-4.692-1.428-9.486-0.918-14.382,1.53L462.336,165.24L462.336,165.24z M382.777,86.904c-3.267,4.488-4.488,9.282-3.675,14.382
			c0.816,5.1,3.267,8.874,7.347,11.322c4.08,2.448,8.466,2.958,13.155,1.53c4.692-1.428,8.673-4.386,11.937-8.874l28.152-43.452
			c2.854-4.488,3.978-9.18,3.363-14.076c-0.609-4.896-2.958-8.772-7.038-11.628c-4.08-2.448-8.466-2.958-13.155-1.53
			c-4.692,1.428-8.672,4.386-11.937,8.874L382.777,86.904L382.777,86.904z M102.48,280.908c5.304-0.816,10.098,0.102,14.382,2.754
			c4.284,2.652,6.834,6.223,7.65,10.71c0.816,4.488-0.408,8.772-3.672,12.854c-3.264,4.079-7.752,6.525-13.464,7.344l-50.796,7.956
			c-5.304,0.813-10.098-0.104-14.382-2.754c-4.284-2.652-6.834-6.428-7.65-11.322c-0.816-4.488,0.408-8.67,3.672-12.546
			c3.264-3.876,7.752-6.223,13.464-7.038L102.48,280.908L102.48,280.908z M107.988,165.24c4.896,2.04,8.466,5.304,10.71,9.792
			s2.346,8.976,0.306,13.464c-2.04,4.488-5.508,7.446-10.404,8.874c-4.896,1.428-9.792,1.122-14.688-0.918l-47.124-21.42
			c-4.896-2.04-8.466-5.304-10.71-9.792s-2.346-8.976-0.306-13.464c2.04-4.488,5.406-7.446,10.098-8.874s9.69-0.918,14.994,1.53
			L107.988,165.24L107.988,165.24z M186.936,86.904c3.264,4.488,4.488,9.282,3.672,14.382s-3.264,8.874-7.344,11.322
			c-3.672,2.448-7.956,2.958-12.852,1.53s-8.772-4.386-11.628-8.874l-28.152-43.452c-3.264-4.488-4.488-9.18-3.672-14.076
			s3.264-8.772,7.344-11.628c3.672-2.448,7.956-2.958,12.852-1.53c4.896,1.428,8.772,4.386,11.628,8.874L186.936,86.904
			L186.936,86.904z M302.604,70.992c0,5.712-1.632,10.404-4.896,14.076s-7.344,5.508-12.241,5.508
			c-4.488,0-8.364-1.836-11.628-5.508c-3.264-3.672-4.896-8.364-4.896-14.076V19.584c0-5.712,1.632-10.404,4.896-14.076
			C277.104,1.836,280.98,0,285.467,0c4.897,0,8.979,1.836,12.241,5.508c3.264,3.672,4.896,8.364,4.896,14.076V70.992L302.604,70.992
			z M421.332,235.62c0,0.816-0.104,1.428-0.306,1.836c-0.204,0.408-0.309,1.02-0.309,1.836v1.836c0,7.344-1.02,15.504-3.06,24.48
			c-2.856,15.504-8.265,31.518-16.22,48.042c-7.954,16.521-16.627,34.17-26.011,52.938c-6.12,12.24-10.401,23.358-12.852,33.354
			s-4.386,18.666-5.814,26.01s-2.958,13.158-4.59,17.442c-1.632,4.281-4.691,6.834-9.18,7.647H226.716
			c-4.488-0.813-7.548-3.366-9.18-7.647c-1.632-4.284-3.162-10.101-4.59-17.442c-1.428-7.344-3.366-16.014-5.814-26.01
			c-2.448-9.996-6.732-21.114-12.852-33.354c-9.384-18.768-18.054-36.414-26.01-52.938s-13.362-32.538-16.218-48.042
			c-0.816-4.08-1.428-8.16-1.836-12.24l-1.224-12.24v-5.508c0-19.584,3.366-36.72,10.098-51.408s16.116-27.132,28.152-37.332
			c12.036-10.2,26.316-17.85,42.84-22.95c16.524-5.1,34.578-7.65,54.162-7.65h0.609h0.612c19.584,0,37.638,2.55,54.163,7.65
			c16.523,5.1,30.804,12.75,42.84,22.95c12.036,10.2,21.522,22.644,28.458,37.332C417.866,198.9,421.332,216.036,421.332,235.62z"/>
	</g>
</g>
<g>
</g>
<g>
</g>
<g>
</g>
<g>
</g>
<g>
</g>
<g>
</g>
<g>
</g>
<g>
</g>
<g>
</g>
<g>
</g>
<g>
</g>
<g>
</g>
<g>
</g>
<g>
</g>
<g>
</g>
</svg>
